<?xml version="1.0" encoding="UTF-8"?>
<svg xmlns="http://www.w3.org/2000/svg" xmlns:xlink="http://www.w3.org/1999/xlink" width="30pt" height="30.000001pt" viewBox="0 0 30 30.000001" version="1.2">
<defs>
<clipPath id="clip1">
  <path d="M 0.484375 0 L 29.515625 0 L 29.515625 29.03125 L 0.484375 29.03125 Z M 0.484375 0 "/>
</clipPath>
<clipPath id="clip2">
  <path d="M 2.097656 5.789062 L 28.226562 5.789062 L 28.226562 23.210938 L 2.097656 23.210938 Z M 2.097656 5.789062 "/>
</clipPath>
</defs>
<g id="surface1">
<g clip-path="url(#clip1)" clip-rule="nonzero">
<path style=" stroke:none;fill-rule:nonzero;fill:rgb(100%,100%,100%);fill-opacity:1;" d="M 0.484375 0 L 29.515625 0 L 29.515625 29.03125 L 0.484375 29.03125 Z M 0.484375 0 "/>
<path style=" stroke:none;fill-rule:nonzero;fill:rgb(100%,100%,100%);fill-opacity:1;" d="M 0.484375 0 L 29.515625 0 L 29.515625 29.03125 L 0.484375 29.03125 Z M 0.484375 0 "/>
</g>
<g clip-path="url(#clip2)" clip-rule="nonzero">
<path style=" stroke:none;fill-rule:nonzero;fill:rgb(6.269836%,5.879211%,5.099487%);fill-opacity:1;" d="M 27.347656 21.152344 L 24.386719 21.617188 C 25.214844 20.800781 25.847656 19.714844 26.191406 18.476562 L 27.347656 18.988281 Z M 16.332031 19.164062 C 16.628906 18.597656 17.210938 18.226562 17.832031 18.226562 L 17.839844 18.226562 C 17.839844 18.226562 17.84375 18.226562 17.84375 18.226562 C 18.082031 18.226562 18.277344 18.035156 18.28125 17.800781 C 18.289062 16.925781 19.085938 16.15625 19.984375 16.15625 C 20.054688 16.15625 20.128906 16.164062 20.203125 16.171875 C 20.441406 16.207031 20.660156 16.042969 20.695312 15.808594 C 20.8125 15.015625 21.5625 14.394531 22.398438 14.394531 C 22.542969 14.394531 22.683594 14.414062 22.824219 14.453125 C 23.054688 14.515625 23.296875 14.386719 23.363281 14.15625 C 23.542969 13.542969 24.121094 13.078125 24.789062 12.984375 C 25.328125 13.972656 25.613281 15.121094 25.613281 16.316406 C 25.613281 19.644531 23.398438 22.351562 20.679688 22.351562 C 18.847656 22.351562 17.195312 21.132812 16.332031 19.164062 Z M 13.355469 21.632812 C 13.929688 21.066406 14.414062 20.363281 14.777344 19.546875 L 15.546875 19.546875 C 15.910156 20.363281 16.394531 21.066406 16.96875 21.632812 C 15.800781 21.511719 14.523438 21.511719 13.355469 21.632812 Z M 4.710938 16.316406 C 4.710938 15.121094 4.996094 13.972656 5.535156 12.984375 C 6.203125 13.078125 6.78125 13.542969 6.960938 14.15625 C 7.03125 14.386719 7.269531 14.515625 7.5 14.453125 C 7.640625 14.414062 7.78125 14.394531 7.925781 14.394531 C 8.765625 14.394531 9.511719 15.015625 9.628906 15.808594 C 9.664062 16.042969 9.886719 16.207031 10.125 16.171875 C 10.195312 16.164062 10.269531 16.15625 10.339844 16.15625 C 11.238281 16.15625 12.035156 16.925781 12.042969 17.800781 C 12.046875 18.035156 12.242188 18.226562 12.480469 18.226562 C 12.480469 18.226562 12.484375 18.226562 12.484375 18.226562 L 12.496094 18.226562 C 13.113281 18.226562 13.695312 18.597656 13.992188 19.164062 C 13.128906 21.132812 11.476562 22.351562 9.644531 22.351562 C 6.925781 22.351562 4.710938 19.644531 4.710938 16.316406 Z M 2.976562 18.988281 L 4.132812 18.476562 C 4.476562 19.714844 5.109375 20.800781 5.9375 21.617188 L 2.976562 21.152344 Z M 27.964844 18.316406 L 26.382812 17.613281 C 26.449219 17.191406 26.484375 16.757812 26.484375 16.316406 C 26.484375 14.933594 26.144531 13.605469 25.496094 12.464844 L 26.359375 8.511719 C 26.644531 8.398438 26.847656 8.125 26.847656 7.804688 C 26.847656 7.601562 26.765625 7.414062 26.632812 7.277344 L 26.832031 6.355469 C 26.886719 6.121094 26.734375 5.890625 26.5 5.84375 C 26.265625 5.792969 26.03125 5.941406 25.980469 6.171875 L 25.777344 7.09375 C 25.492188 7.207031 25.292969 7.484375 25.292969 7.804688 C 25.292969 8.007812 25.375 8.191406 25.507812 8.332031 L 24.675781 12.128906 C 23.808594 12.25 23.039062 12.796875 22.667969 13.546875 C 22.578125 13.539062 22.488281 13.535156 22.398438 13.535156 C 21.277344 13.535156 20.257812 14.28125 19.921875 15.296875 C 18.703125 15.324219 17.652344 16.242188 17.445312 17.394531 C 16.679688 17.519531 15.996094 17.996094 15.601562 18.683594 L 14.722656 18.683594 C 14.328125 17.996094 13.644531 17.519531 12.878906 17.394531 C 12.671875 16.242188 11.621094 15.324219 10.402344 15.296875 C 10.066406 14.28125 9.046875 13.535156 7.925781 13.535156 C 7.835938 13.535156 7.746094 13.539062 7.65625 13.546875 C 7.285156 12.796875 6.515625 12.25 5.648438 12.128906 L 4.816406 8.332031 C 4.949219 8.195312 5.03125 8.007812 5.03125 7.804688 C 5.03125 7.484375 4.832031 7.207031 4.546875 7.09375 L 4.34375 6.171875 C 4.292969 5.941406 4.058594 5.792969 3.824219 5.84375 C 3.589844 5.890625 3.4375 6.121094 3.492188 6.355469 L 3.691406 7.277344 C 3.558594 7.414062 3.480469 7.601562 3.480469 7.804688 C 3.480469 8.125 3.679688 8.398438 3.964844 8.511719 L 4.828125 12.464844 C 4.179688 13.605469 3.839844 14.933594 3.839844 16.316406 C 3.839844 16.757812 3.875 17.191406 3.941406 17.613281 L 2.359375 18.316406 C 2.203125 18.386719 2.101562 18.539062 2.101562 18.710938 L 2.101562 21.523438 C 2.101562 21.734375 2.257812 21.914062 2.472656 21.945312 L 7.539062 22.742188 C 8.191406 23.042969 8.902344 23.210938 9.644531 23.210938 C 10.285156 23.210938 10.90625 23.089844 11.492188 22.859375 C 13.53125 22.242188 16.792969 22.242188 18.832031 22.859375 C 19.417969 23.089844 20.039062 23.210938 20.679688 23.210938 C 21.421875 23.210938 22.132812 23.042969 22.785156 22.742188 L 27.851562 21.945312 C 28.066406 21.914062 28.222656 21.734375 28.222656 21.523438 L 28.222656 18.710938 C 28.222656 18.539062 28.121094 18.386719 27.964844 18.316406 "/>
</g>
</g>
</svg>
