<?xml version="1.0" encoding="UTF-8"?>
<svg xmlns="http://www.w3.org/2000/svg" xmlns:xlink="http://www.w3.org/1999/xlink" width="30pt" height="30.000001pt" viewBox="0 0 30 30.000001" version="1.2">
<defs>
<clipPath id="clip1">
  <path d="M 6.664062 1.015625 L 26.261719 1.015625 L 26.261719 27.871094 L 6.664062 27.871094 Z M 6.664062 1.015625 "/>
</clipPath>
</defs>
<g id="surface1">
<g clip-path="url(#clip1)" clip-rule="nonzero">
<path style=" stroke:none;fill-rule:evenodd;fill:rgb(6.269836%,5.879211%,5.099487%);fill-opacity:1;" d="M 11.4375 5.941406 L 12.894531 3.984375 L 12.894531 1.015625 L 13.78125 1.015625 L 13.78125 3.878906 L 15.351562 5.425781 L 17.574219 5.425781 L 19.144531 3.878906 L 19.144531 1.015625 L 20.03125 1.015625 L 20.03125 3.984375 L 21.488281 5.941406 L 19.175781 10.265625 L 26.1875 25.855469 L 16.460938 27.871094 L 6.734375 25.855469 L 13.75 10.265625 Z M 7.996094 25.214844 L 16.460938 26.964844 L 24.925781 25.214844 L 18.402344 10.722656 L 14.523438 10.722656 Z M 12.480469 6.015625 L 14.523438 9.835938 L 18.402344 9.835938 L 20.441406 6.015625 L 19.503906 4.761719 L 17.941406 6.304688 L 14.984375 6.304688 L 13.421875 4.761719 Z M 12.480469 6.015625 "/>
</g>
</g>
</svg>
