<?xml version="1.0" encoding="UTF-8"?>
<svg xmlns="http://www.w3.org/2000/svg" xmlns:xlink="http://www.w3.org/1999/xlink" width="30pt" height="30.000001pt" viewBox="0 0 30 30.000001" version="1.2">
<defs>
<clipPath id="clip1">
  <path d="M 2 1.578125 L 28 1.578125 L 28 27.707031 L 2 27.707031 Z M 2 1.578125 "/>
</clipPath>
</defs>
<g id="surface1">
<path style=" stroke:none;fill-rule:nonzero;fill:rgb(0%,0%,0%);fill-opacity:1;" d="M 20.988281 21.898438 C 20.988281 22.242188 20.710938 22.523438 20.371094 22.523438 L 17.285156 22.523438 C 16.945312 22.523438 16.667969 22.242188 16.667969 21.898438 L 16.667969 20.851562 L 20.988281 20.851562 Z M 20.988281 20.429688 L 16.667969 20.429688 C 16.441406 20.429688 16.253906 20.617188 16.253906 20.851562 L 16.253906 21.898438 C 16.253906 22.476562 16.714844 22.945312 17.285156 22.945312 L 20.371094 22.945312 C 20.941406 22.945312 21.402344 22.476562 21.402344 21.898438 L 21.402344 20.851562 C 21.402344 20.617188 21.214844 20.429688 20.988281 20.429688 "/>
<path style=" stroke:none;fill-rule:nonzero;fill:rgb(0%,0%,0%);fill-opacity:1;" d="M 14.195312 15.613281 C 14.082031 15.613281 13.992188 15.519531 13.992188 15.402344 C 13.992188 15.289062 14.082031 15.195312 14.195312 15.195312 C 14.308594 15.195312 14.402344 15.289062 14.402344 15.402344 C 14.402344 15.519531 14.308594 15.613281 14.195312 15.613281 Z M 14.195312 14.773438 C 13.855469 14.773438 13.578125 15.058594 13.578125 15.402344 C 13.578125 15.75 13.855469 16.03125 14.195312 16.03125 C 14.539062 16.03125 14.8125 15.75 14.8125 15.402344 C 14.8125 15.058594 14.539062 14.773438 14.195312 14.773438 "/>
<path style=" stroke:none;fill-rule:nonzero;fill:rgb(0%,0%,0%);fill-opacity:1;" d="M 14.195312 19.382812 C 14.082031 19.382812 13.992188 19.289062 13.992188 19.175781 C 13.992188 19.058594 14.082031 18.964844 14.195312 18.964844 C 14.308594 18.964844 14.402344 19.058594 14.402344 19.175781 C 14.402344 19.289062 14.308594 19.382812 14.195312 19.382812 Z M 14.195312 18.546875 C 13.855469 18.546875 13.578125 18.828125 13.578125 19.175781 C 13.578125 19.519531 13.855469 19.800781 14.195312 19.800781 C 14.539062 19.800781 14.8125 19.519531 14.8125 19.175781 C 14.8125 18.828125 14.539062 18.546875 14.195312 18.546875 "/>
<path style=" stroke:none;fill-rule:nonzero;fill:rgb(0%,0%,0%);fill-opacity:1;" d="M 13.375 21.898438 C 13.375 22.242188 13.097656 22.523438 12.753906 22.523438 L 9.667969 22.523438 C 9.328125 22.523438 9.050781 22.242188 9.050781 21.898438 L 9.050781 20.851562 L 13.375 20.851562 Z M 13.375 20.429688 L 9.050781 20.429688 C 8.824219 20.429688 8.640625 20.617188 8.640625 20.851562 L 8.640625 21.898438 C 8.640625 22.476562 9.101562 22.945312 9.667969 22.945312 L 12.753906 22.945312 C 13.324219 22.945312 13.785156 22.476562 13.785156 21.898438 L 13.785156 20.851562 C 13.785156 20.617188 13.601562 20.429688 13.375 20.429688 "/>
<g clip-path="url(#clip1)" clip-rule="nonzero">
<path style=" stroke:none;fill-rule:nonzero;fill:rgb(0%,0%,0%);fill-opacity:1;" d="M 27.320312 26.09375 L 25.085938 26.503906 C 24.710938 26.5 24.574219 26.394531 24.484375 26.039062 L 21.832031 13.996094 C 22 12.738281 22.300781 11.464844 22.628906 10.226562 L 24.089844 5.386719 C 24.558594 6.902344 25.824219 11.855469 27.578125 25.472656 C 27.609375 25.898438 27.5625 26.011719 27.320312 26.09375 Z M 22.636719 26.9375 C 22.632812 27.246094 22.507812 27.417969 22.183594 27.550781 L 17.902344 27.550781 C 16.824219 27.550781 15.871094 26.90625 15.445312 25.90625 C 15.570312 25.570312 15.636719 25.207031 15.636719 24.828125 L 15.636719 13.375 L 20.128906 6.726562 C 20.160156 6.679688 20.171875 6.621094 20.160156 6.566406 C 20.152344 6.511719 20.121094 6.464844 20.074219 6.433594 L 19.132812 5.792969 L 20.050781 5.328125 C 20.140625 5.28125 20.1875 5.175781 20.15625 5.078125 L 19.558594 3.097656 C 21.039062 3.550781 22.316406 4.066406 23.828125 4.828125 L 22.230469 10.113281 C 21.582031 12.570312 21.035156 15.171875 21.402344 17.527344 Z M 12.550781 27.550781 L 7.855469 27.550781 C 7.53125 27.417969 7.40625 27.246094 7.402344 26.9375 L 8.636719 17.53125 C 8.816406 16.386719 8.777344 15.183594 8.617188 13.96875 C 8.449219 12.679688 8.140625 11.375 7.808594 10.105469 L 6.210938 4.828125 C 7.808594 4.027344 9.113281 3.503906 10.707031 3.03125 L 10.089844 5.078125 C 10.058594 5.175781 10.105469 5.28125 10.191406 5.328125 L 11.113281 5.792969 L 10.171875 6.433594 C 10.125 6.464844 10.09375 6.511719 10.082031 6.570312 C 10.074219 6.625 10.085938 6.679688 10.117188 6.726562 L 15.226562 14.003906 L 15.226562 24.828125 C 15.226562 26.332031 14.027344 27.550781 12.550781 27.550781 Z M 5.558594 26.035156 C 5.46875 26.394531 5.328125 26.5 4.953125 26.503906 L 2.71875 26.09375 C 2.476562 26.011719 2.433594 25.898438 2.460938 25.484375 C 4.210938 11.898438 5.480469 6.914062 5.949219 5.390625 L 7.410156 10.222656 C 7.738281 11.460938 8.039062 12.738281 8.207031 13.996094 Z M 12.21875 2.085938 L 15.226562 12.082031 L 15.226562 13.285156 L 10.578125 6.660156 L 11.636719 5.941406 C 11.695312 5.902344 11.730469 5.828125 11.726562 5.753906 C 11.722656 5.679688 11.679688 5.613281 11.613281 5.582031 L 10.535156 5.03125 L 11.28125 2.5625 Z M 17.105469 3.882812 L 15.226562 10.652344 L 13.1875 3.882812 Z M 17.222656 3.464844 L 13.0625 3.464844 L 12.621094 1.996094 L 17.628906 1.996094 Z M 19.710938 5.03125 L 18.632812 5.582031 C 18.566406 5.613281 18.523438 5.679688 18.519531 5.753906 C 18.515625 5.828125 18.550781 5.902344 18.609375 5.941406 L 19.671875 6.664062 L 15.636719 12.632812 L 15.636719 12.050781 C 15.636719 12.03125 15.632812 12.011719 15.628906 11.992188 L 15.449219 11.394531 L 18.03125 2.089844 L 18.964844 2.5625 Z M 27.984375 25.429688 C 25.742188 8.015625 24.324219 4.761719 24.261719 4.632812 C 24.261719 4.628906 24.257812 4.625 24.253906 4.617188 C 24.246094 4.601562 24.234375 4.585938 24.21875 4.570312 C 24.210938 4.566406 24.203125 4.558594 24.195312 4.554688 C 24.1875 4.546875 24.179688 4.539062 24.167969 4.535156 C 22.472656 3.671875 21.085938 3.113281 19.414062 2.617188 L 19.332031 2.355469 C 19.316406 2.300781 19.277344 2.253906 19.226562 2.230469 L 17.992188 1.601562 C 17.992188 1.601562 17.988281 1.601562 17.988281 1.597656 C 17.96875 1.589844 17.949219 1.585938 17.925781 1.582031 C 17.917969 1.582031 17.914062 1.578125 17.902344 1.578125 L 12.34375 1.578125 C 12.34375 1.578125 12.34375 1.578125 12.339844 1.578125 C 12.332031 1.578125 12.324219 1.582031 12.3125 1.585938 C 12.292969 1.589844 12.273438 1.589844 12.257812 1.597656 C 12.257812 1.601562 12.253906 1.601562 12.25 1.601562 L 11.015625 2.230469 C 10.964844 2.253906 10.929688 2.300781 10.910156 2.355469 L 10.851562 2.550781 C 9.078125 3.0625 7.625 3.640625 5.871094 4.535156 C 5.863281 4.539062 5.855469 4.546875 5.847656 4.550781 C 5.835938 4.558594 5.828125 4.566406 5.820312 4.570312 C 5.804688 4.585938 5.796875 4.601562 5.785156 4.617188 C 5.785156 4.625 5.777344 4.625 5.777344 4.632812 C 5.71875 4.761719 4.296875 8.015625 2.054688 25.441406 C 2.027344 25.785156 1.992188 26.300781 2.609375 26.496094 C 2.617188 26.5 2.625 26.5 2.632812 26.5 L 4.898438 26.921875 C 4.910156 26.921875 4.921875 26.925781 4.933594 26.925781 C 5.339844 26.925781 5.78125 26.832031 5.957031 26.132812 L 8.328125 15.351562 C 8.363281 16.074219 8.335938 16.785156 8.230469 17.46875 L 6.992188 26.894531 C 6.992188 26.90625 6.992188 26.914062 6.992188 26.925781 C 6.992188 27.585938 7.421875 27.832031 7.742188 27.957031 C 7.765625 27.964844 7.789062 27.972656 7.816406 27.972656 L 12.550781 27.972656 C 13.691406 27.972656 14.691406 27.335938 15.226562 26.390625 C 15.769531 27.363281 16.777344 27.972656 17.902344 27.972656 L 22.222656 27.972656 C 22.25 27.972656 22.273438 27.964844 22.296875 27.957031 C 22.621094 27.832031 23.046875 27.585938 23.046875 26.925781 C 23.046875 26.914062 23.046875 26.90625 23.046875 26.894531 L 21.808594 17.464844 C 21.703125 16.78125 21.675781 16.070312 21.710938 15.351562 L 24.082031 26.136719 C 24.257812 26.832031 24.699219 26.925781 25.105469 26.925781 C 25.117188 26.925781 25.132812 26.921875 25.144531 26.921875 L 27.40625 26.5 C 27.414062 26.5 27.421875 26.5 27.429688 26.496094 C 28.050781 26.300781 28.011719 25.785156 27.984375 25.429688 "/>
</g>
</g>
</svg>
