<?xml version="1.0" encoding="UTF-8"?>
<svg xmlns="http://www.w3.org/2000/svg" xmlns:xlink="http://www.w3.org/1999/xlink" width="30pt" height="30.000001pt" viewBox="0 0 30 30.000001" version="1.2">
<defs>
<clipPath id="clip1">
  <path d="M 7.929688 2.785156 L 21.390625 2.785156 L 21.390625 27.238281 L 7.929688 27.238281 Z M 7.929688 2.785156 "/>
</clipPath>
</defs>
<g id="surface1">
<g clip-path="url(#clip1)" clip-rule="nonzero">
<path style=" stroke:none;fill-rule:nonzero;fill:rgb(6.269836%,5.879211%,5.099487%);fill-opacity:1;" d="M 20.589844 26.421875 L 16.613281 26.421875 C 16.53125 24.929688 16.242188 19.472656 16.242188 17.050781 C 16.242188 14.335938 15.21875 10.980469 15.054688 10.464844 L 15.054688 9.304688 L 15.449219 9.304688 C 16.105469 9.304688 16.636719 8.757812 16.636719 8.082031 L 16.636719 5.230469 L 17.472656 5.230469 L 17.636719 6.570312 C 17.769531 7.664062 18.675781 8.492188 19.746094 8.492188 L 20.035156 8.492188 C 20.320312 11.164062 20.589844 14.328125 20.589844 16.640625 Z M 13.078125 17.050781 C 13.078125 19.472656 12.789062 24.929688 12.707031 26.421875 L 8.730469 26.421875 L 8.730469 16.640625 C 8.730469 14.332031 9 11.164062 9.28125 8.492188 L 9.574219 8.492188 C 10.644531 8.492188 11.550781 7.664062 11.683594 6.570312 L 11.847656 5.230469 L 14.265625 5.230469 L 14.265625 10.464844 C 14.101562 10.980469 13.078125 14.335938 13.078125 17.050781 Z M 10.792969 6.859375 C 10.582031 7.34375 10.113281 7.675781 9.574219 7.675781 L 9.371094 7.675781 C 9.402344 7.394531 9.433594 7.125 9.460938 6.859375 Z M 10.949219 6.046875 L 9.558594 6.046875 C 9.59375 5.757812 9.625 5.484375 9.65625 5.230469 L 11.050781 5.230469 Z M 11.890625 3.601562 L 11.890625 4.414062 L 9.757812 4.414062 C 9.800781 4.074219 9.839844 3.796875 9.863281 3.601562 Z M 14.265625 4.414062 L 12.683594 4.414062 L 12.683594 3.601562 L 14.265625 3.601562 Z M 15.054688 3.601562 L 16.636719 3.601562 L 16.636719 4.414062 L 15.054688 4.414062 Z M 15.054688 5.230469 L 15.847656 5.230469 L 15.847656 8.082031 C 15.847656 8.308594 15.667969 8.492188 15.449219 8.492188 L 15.054688 8.492188 Z M 19.5625 4.414062 L 17.425781 4.414062 L 17.425781 3.601562 L 19.453125 3.601562 C 19.480469 3.796875 19.515625 4.074219 19.5625 4.414062 Z M 19.949219 7.675781 L 19.746094 7.675781 C 19.074219 7.675781 18.503906 7.15625 18.421875 6.46875 L 18.269531 5.230469 L 19.664062 5.230469 C 19.75 5.921875 19.847656 6.757812 19.949219 7.675781 Z M 20.191406 3.132812 C 20.164062 2.933594 19.996094 2.785156 19.800781 2.785156 L 9.519531 2.785156 C 9.324219 2.785156 9.15625 2.933594 9.128906 3.132812 C 9.117188 3.222656 7.9375 11.777344 7.9375 16.640625 L 7.9375 26.828125 C 7.9375 27.054688 8.117188 27.238281 8.335938 27.238281 L 13.078125 27.238281 C 13.289062 27.238281 13.460938 27.070312 13.472656 26.855469 C 13.476562 26.785156 13.871094 19.882812 13.871094 17.050781 C 13.871094 15.332031 14.320312 13.28125 14.660156 11.972656 C 15 13.28125 15.449219 15.328125 15.449219 17.050781 C 15.449219 19.882812 15.84375 26.785156 15.847656 26.855469 C 15.859375 27.070312 16.03125 27.238281 16.242188 27.238281 L 20.984375 27.238281 C 21.203125 27.238281 21.378906 27.054688 21.378906 26.828125 L 21.378906 16.640625 C 21.378906 11.777344 20.203125 3.222656 20.191406 3.132812 "/>
</g>
</g>
</svg>
