<?xml version="1.0" encoding="UTF-8"?>
<svg xmlns="http://www.w3.org/2000/svg" xmlns:xlink="http://www.w3.org/1999/xlink" width="30pt" height="30.000001pt" viewBox="0 0 30 30.000001" version="1.2">
<defs>
<clipPath id="clip1">
  <path d="M 2.542969 1.488281 L 27.222656 1.488281 L 27.222656 27.617188 L 2.542969 27.617188 Z M 2.542969 1.488281 "/>
</clipPath>
</defs>
<g id="surface1">
<g clip-path="url(#clip1)" clip-rule="nonzero">
<path style=" stroke:none;fill-rule:evenodd;fill:rgb(6.269836%,5.879211%,5.099487%);fill-opacity:1;" d="M 23.085938 4.136719 C 22.941406 4.074219 22.792969 4.015625 22.644531 3.949219 L 19.554688 2.621094 L 18.621094 1.660156 C 18.59375 1.632812 18.566406 1.609375 18.535156 1.589844 C 18.527344 1.582031 18.519531 1.582031 18.511719 1.578125 C 18.480469 1.558594 18.449219 1.542969 18.414062 1.53125 C 18.402344 1.527344 18.390625 1.523438 18.378906 1.523438 C 18.339844 1.511719 18.296875 1.503906 18.25 1.503906 L 10.894531 1.503906 C 10.847656 1.503906 10.804688 1.511719 10.765625 1.519531 C 10.753906 1.523438 10.742188 1.527344 10.730469 1.53125 C 10.695312 1.542969 10.65625 1.558594 10.621094 1.578125 C 10.621094 1.582031 10.617188 1.582031 10.617188 1.585938 C 10.585938 1.601562 10.5625 1.621094 10.535156 1.644531 L 9.453125 2.679688 L 6.585938 3.695312 C 5.367188 4.128906 4.511719 4.621094 3.890625 5.25 C 3.136719 6.007812 2.746094 6.976562 2.722656 8.128906 L 2.625 13.585938 C 2.621094 13.808594 2.757812 14.011719 2.96875 14.089844 L 6.25 15.3125 L 6.25 25.105469 C 6.25 25.121094 6.25 25.140625 6.253906 25.15625 C 6.261719 25.242188 6.257812 25.355469 6.257812 25.476562 C 6.25 25.882812 6.234375 26.441406 6.632812 26.855469 C 6.914062 27.144531 7.328125 27.289062 7.894531 27.292969 C 10.378906 27.519531 12.359375 27.632812 14.363281 27.632812 C 16.546875 27.632812 18.765625 27.496094 21.703125 27.21875 C 22.175781 27.238281 22.554688 27.117188 22.832031 26.859375 C 23.332031 26.390625 23.347656 25.605469 23.359375 25.03125 C 23.359375 25.027344 23.359375 25.023438 23.359375 25.019531 L 23.359375 15.296875 L 26.585938 14.109375 C 26.785156 14.035156 26.921875 13.84375 26.929688 13.628906 L 27.050781 8.199219 C 27.105469 5.832031 24.96875 4.933594 23.085938 4.136719 Z M 18.285156 2.820312 L 18.609375 3.152344 L 16.363281 7.285156 L 15.273438 6.558594 Z M 17.152344 2.558594 L 14.511719 5.835938 L 11.964844 2.558594 Z M 10.835938 2.808594 L 13.742188 6.550781 L 12.410156 7.414062 L 10.367188 3.253906 Z M 25.894531 13.242188 L 23.359375 14.175781 L 23.359375 9.179688 C 23.359375 8.886719 23.128906 8.652344 22.839844 8.652344 C 22.550781 8.652344 22.320312 8.886719 22.320312 9.179688 L 22.320312 25.015625 C 22.3125 25.355469 22.300781 25.921875 22.125 26.082031 C 22.039062 26.164062 21.859375 26.171875 21.722656 26.164062 C 21.695312 26.164062 21.667969 26.164062 21.644531 26.167969 C 16.054688 26.695312 13.113281 26.710938 7.96875 26.238281 C 7.953125 26.238281 7.9375 26.238281 7.921875 26.238281 C 7.539062 26.238281 7.414062 26.152344 7.378906 26.117188 C 7.289062 26.019531 7.292969 25.742188 7.296875 25.5 C 7.300781 25.363281 7.304688 25.222656 7.292969 25.082031 L 7.292969 9.179688 C 7.292969 8.886719 7.058594 8.652344 6.773438 8.652344 C 6.484375 8.652344 6.25 8.886719 6.25 9.179688 L 6.25 14.1875 L 3.675781 13.230469 L 3.765625 8.148438 C 3.792969 6.503906 4.742188 5.46875 6.933594 4.691406 L 9.46875 3.789062 L 11.738281 8.410156 C 11.804688 8.546875 11.921875 8.644531 12.066406 8.683594 C 12.113281 8.699219 12.15625 8.703125 12.203125 8.703125 C 12.304688 8.703125 12.402344 8.675781 12.484375 8.621094 L 14.011719 7.625 L 14.011719 12.695312 C 14.011719 12.984375 14.246094 13.21875 14.535156 13.21875 C 14.820312 13.21875 15.054688 12.984375 15.054688 12.691406 L 15.054688 7.675781 L 16.261719 8.476562 C 16.382812 8.558594 16.53125 8.582031 16.671875 8.546875 C 16.8125 8.511719 16.933594 8.417969 17.003906 8.292969 L 19.484375 3.738281 L 22.238281 4.921875 C 22.386719 4.984375 22.535156 5.046875 22.6875 5.113281 C 24.777344 5.992188 26.042969 6.640625 26.007812 8.175781 Z M 25.894531 13.242188 "/>
</g>
<path style=" stroke:none;fill-rule:evenodd;fill:rgb(6.269836%,5.879211%,5.099487%);fill-opacity:1;" d="M 20.527344 10.210938 L 16.71875 10.210938 C 16.433594 10.210938 16.199219 10.449219 16.199219 10.738281 L 16.195312 13.585938 C 16.195312 13.773438 16.296875 13.949219 16.460938 14.042969 L 18.34375 15.128906 C 18.421875 15.175781 18.511719 15.199219 18.601562 15.199219 C 18.6875 15.199219 18.773438 15.175781 18.855469 15.132812 L 20.78125 14.046875 C 20.945312 13.953125 21.046875 13.777344 21.046875 13.585938 L 21.046875 10.742188 C 21.046875 10.601562 20.992188 10.464844 20.894531 10.367188 C 20.796875 10.269531 20.664062 10.210938 20.527344 10.210938 Z M 20.003906 13.277344 L 18.601562 14.066406 L 17.238281 13.277344 L 17.238281 11.265625 L 20.003906 11.265625 Z M 20.003906 13.277344 "/>
</g>
</svg>
