<?xml version="1.0" encoding="UTF-8"?>
<svg xmlns="http://www.w3.org/2000/svg" xmlns:xlink="http://www.w3.org/1999/xlink" width="30pt" height="30.000001pt" viewBox="0 0 30 30.000001" version="1.2">
<defs>
<clipPath id="clip1">
  <path d="M 12 2.136719 L 18 2.136719 L 18 3 L 12 3 Z M 12 2.136719 "/>
</clipPath>
<clipPath id="clip2">
  <path d="M 16 2.136719 L 19 2.136719 L 19 4 L 16 4 Z M 16 2.136719 "/>
</clipPath>
<clipPath id="clip3">
  <path d="M 11 2.136719 L 14 2.136719 L 14 4 L 11 4 Z M 11 2.136719 "/>
</clipPath>
<clipPath id="clip4">
  <path d="M 14 8 L 16 8 L 16 26.734375 L 14 26.734375 Z M 14 8 "/>
</clipPath>
<clipPath id="clip5">
  <path d="M 5.886719 20 L 9 20 L 9 21 L 5.886719 21 Z M 5.886719 20 "/>
</clipPath>
<clipPath id="clip6">
  <path d="M 5.886719 20 L 7 20 L 7 23 L 5.886719 23 Z M 5.886719 20 "/>
</clipPath>
<clipPath id="clip7">
  <path d="M 22 21 L 23.949219 21 L 23.949219 22 L 22 22 Z M 22 21 "/>
</clipPath>
<clipPath id="clip8">
  <path d="M 23 8 L 23.949219 8 L 23.949219 21 L 23 21 Z M 23 8 "/>
</clipPath>
<clipPath id="clip9">
  <path d="M 20 22 L 23.949219 22 L 23.949219 23 L 20 23 Z M 20 22 "/>
</clipPath>
<clipPath id="clip10">
  <path d="M 20 20 L 23.949219 20 L 23.949219 21 L 20 21 Z M 20 20 "/>
</clipPath>
<clipPath id="clip11">
  <path d="M 23 20 L 23.949219 20 L 23.949219 23 L 23 23 Z M 23 20 "/>
</clipPath>
<clipPath id="clip12">
  <path d="M 18 4 L 23.949219 4 L 23.949219 9 L 18 9 Z M 18 4 "/>
</clipPath>
<clipPath id="clip13">
  <path d="M 8 24 L 21 24 L 21 26.734375 L 8 26.734375 Z M 8 24 "/>
</clipPath>
</defs>
<g id="surface1">
<path style=" stroke:none;fill-rule:nonzero;fill:rgb(0%,0%,0%);fill-opacity:1;" d="M 14.929688 7.921875 C 14.824219 7.921875 14.734375 7.835938 14.734375 7.730469 C 14.734375 7.625 14.820312 7.539062 14.925781 7.539062 L 14.929688 7.539062 C 15.035156 7.539062 15.121094 7.625 15.121094 7.730469 C 15.121094 7.835938 15.035156 7.921875 14.929688 7.921875 Z M 14.929688 7.921875 "/>
<path style=" stroke:none;fill-rule:nonzero;fill:rgb(0%,0%,0%);fill-opacity:1;" d="M 15.3125 9.457031 C 15.207031 9.457031 15.117188 9.371094 15.117188 9.265625 C 15.117188 9.160156 15.203125 9.074219 15.308594 9.074219 L 15.3125 9.074219 C 15.417969 9.074219 15.503906 9.160156 15.503906 9.265625 C 15.503906 9.371094 15.417969 9.457031 15.3125 9.457031 Z M 15.3125 9.457031 "/>
<path style=" stroke:none;fill-rule:nonzero;fill:rgb(0%,0%,0%);fill-opacity:1;" d="M 15.3125 11.378906 C 15.207031 11.378906 15.117188 11.292969 15.117188 11.183594 C 15.117188 11.078125 15.203125 10.992188 15.308594 10.992188 L 15.3125 10.992188 C 15.417969 10.992188 15.503906 11.078125 15.503906 11.183594 C 15.503906 11.292969 15.417969 11.378906 15.3125 11.378906 Z M 15.3125 11.378906 "/>
<path style=" stroke:none;fill-rule:nonzero;fill:rgb(0%,0%,0%);fill-opacity:1;" d="M 15.3125 13.296875 C 15.207031 13.296875 15.117188 13.210938 15.117188 13.105469 C 15.117188 13 15.203125 12.914062 15.308594 12.914062 L 15.3125 12.914062 C 15.417969 12.914062 15.503906 13 15.503906 13.105469 C 15.503906 13.210938 15.417969 13.296875 15.3125 13.296875 Z M 15.3125 13.296875 "/>
<path style=" stroke:none;fill-rule:nonzero;fill:rgb(0%,0%,0%);fill-opacity:1;" d="M 15.3125 15.21875 C 15.207031 15.21875 15.117188 15.132812 15.117188 15.023438 C 15.117188 14.917969 15.203125 14.832031 15.308594 14.832031 L 15.3125 14.832031 C 15.417969 14.832031 15.503906 14.917969 15.503906 15.023438 C 15.503906 15.132812 15.417969 15.21875 15.3125 15.21875 Z M 15.3125 15.21875 "/>
<path style=" stroke:none;fill-rule:nonzero;fill:rgb(0%,0%,0%);fill-opacity:1;" d="M 15.3125 17.136719 C 15.207031 17.136719 15.117188 17.050781 15.117188 16.945312 C 15.117188 16.839844 15.203125 16.753906 15.308594 16.753906 L 15.3125 16.753906 C 15.417969 16.753906 15.503906 16.839844 15.503906 16.945312 C 15.503906 17.050781 15.417969 17.136719 15.3125 17.136719 Z M 15.3125 17.136719 "/>
<path style=" stroke:none;fill-rule:nonzero;fill:rgb(0%,0%,0%);fill-opacity:1;" d="M 15.3125 19.058594 C 15.207031 19.058594 15.117188 18.972656 15.117188 18.863281 C 15.117188 18.757812 15.203125 18.671875 15.308594 18.671875 L 15.3125 18.671875 C 15.417969 18.671875 15.503906 18.757812 15.503906 18.863281 C 15.503906 18.972656 15.417969 19.058594 15.3125 19.058594 Z M 15.3125 19.058594 "/>
<path style=" stroke:none;fill-rule:nonzero;fill:rgb(0%,0%,0%);fill-opacity:1;" d="M 15.3125 20.976562 C 15.207031 20.976562 15.117188 20.890625 15.117188 20.785156 C 15.117188 20.679688 15.203125 20.59375 15.308594 20.59375 L 15.3125 20.59375 C 15.417969 20.59375 15.503906 20.679688 15.503906 20.785156 C 15.503906 20.890625 15.417969 20.976562 15.3125 20.976562 Z M 15.3125 20.976562 "/>
<path style=" stroke:none;fill-rule:nonzero;fill:rgb(0%,0%,0%);fill-opacity:1;" d="M 15.3125 22.898438 C 15.207031 22.898438 15.117188 22.8125 15.117188 22.703125 C 15.117188 22.597656 15.203125 22.511719 15.308594 22.511719 L 15.3125 22.511719 C 15.417969 22.511719 15.503906 22.597656 15.503906 22.703125 C 15.503906 22.8125 15.417969 22.898438 15.3125 22.898438 Z M 15.3125 22.898438 "/>
<path style=" stroke:none;fill-rule:nonzero;fill:rgb(0%,0%,0%);fill-opacity:1;" d="M 15.3125 24.816406 C 15.207031 24.816406 15.117188 24.730469 15.117188 24.625 C 15.117188 24.519531 15.203125 24.433594 15.308594 24.433594 L 15.3125 24.433594 C 15.417969 24.433594 15.503906 24.519531 15.503906 24.625 C 15.503906 24.730469 15.417969 24.816406 15.3125 24.816406 Z M 15.3125 24.816406 "/>
<g clip-path="url(#clip1)" clip-rule="nonzero">
<path style=" stroke:none;fill-rule:nonzero;fill:rgb(0%,0%,0%);fill-opacity:1;" d="M 16.832031 2.546875 L 13.003906 2.546875 C 12.898438 2.546875 12.8125 2.460938 12.8125 2.355469 C 12.8125 2.246094 12.898438 2.160156 13.003906 2.160156 L 16.832031 2.160156 C 16.9375 2.160156 17.023438 2.246094 17.023438 2.355469 C 17.023438 2.460938 16.9375 2.546875 16.832031 2.546875 Z M 16.832031 2.546875 "/>
</g>
<path style=" stroke:none;fill-rule:nonzero;fill:rgb(0%,0%,0%);fill-opacity:1;" d="M 16.832031 3.699219 L 13.003906 3.699219 C 12.898438 3.699219 12.8125 3.613281 12.8125 3.507812 C 12.8125 3.398438 12.898438 3.3125 13.003906 3.3125 L 16.832031 3.3125 C 16.9375 3.3125 17.023438 3.398438 17.023438 3.507812 C 17.023438 3.613281 16.9375 3.699219 16.832031 3.699219 Z M 16.832031 3.699219 "/>
<g clip-path="url(#clip2)" clip-rule="nonzero">
<path style=" stroke:none;fill-rule:nonzero;fill:rgb(0%,0%,0%);fill-opacity:1;" d="M 18.367188 3.699219 C 18.324219 3.699219 18.285156 3.683594 18.25 3.660156 L 16.71875 2.507812 C 16.632812 2.445312 16.617188 2.324219 16.679688 2.238281 C 16.742188 2.152344 16.863281 2.136719 16.949219 2.199219 L 18.480469 3.351562 C 18.566406 3.414062 18.582031 3.535156 18.519531 3.621094 C 18.480469 3.671875 18.425781 3.699219 18.367188 3.699219 Z M 18.367188 3.699219 "/>
</g>
<path style=" stroke:none;fill-rule:nonzero;fill:rgb(0%,0%,0%);fill-opacity:1;" d="M 16.066406 7.539062 C 16.023438 7.539062 15.980469 7.523438 15.941406 7.492188 C 15.863281 7.421875 15.851562 7.300781 15.921875 7.222656 C 16.546875 6.488281 18.175781 4.390625 18.175781 3.507812 C 18.175781 3.398438 18.261719 3.3125 18.367188 3.3125 C 18.472656 3.3125 18.558594 3.398438 18.558594 3.507812 C 18.558594 4.714844 16.308594 7.359375 16.210938 7.46875 C 16.175781 7.515625 16.121094 7.539062 16.066406 7.539062 Z M 16.066406 7.539062 "/>
<g clip-path="url(#clip3)" clip-rule="nonzero">
<path style=" stroke:none;fill-rule:nonzero;fill:rgb(0%,0%,0%);fill-opacity:1;" d="M 11.46875 3.699219 C 11.410156 3.699219 11.355469 3.671875 11.316406 3.621094 C 11.253906 3.535156 11.269531 3.414062 11.355469 3.351562 L 12.886719 2.199219 C 12.972656 2.136719 13.09375 2.152344 13.15625 2.238281 C 13.21875 2.324219 13.203125 2.445312 13.117188 2.507812 L 11.585938 3.660156 C 11.550781 3.683594 11.511719 3.699219 11.46875 3.699219 Z M 11.46875 3.699219 "/>
</g>
<path style=" stroke:none;fill-rule:nonzero;fill:rgb(0%,0%,0%);fill-opacity:1;" d="M 13.769531 7.539062 C 13.714844 7.539062 13.660156 7.515625 13.625 7.46875 C 13.527344 7.359375 11.277344 4.714844 11.277344 3.507812 C 11.277344 3.398438 11.363281 3.3125 11.46875 3.3125 C 11.574219 3.3125 11.660156 3.398438 11.660156 3.507812 C 11.660156 4.394531 13.289062 6.488281 13.914062 7.222656 C 13.984375 7.300781 13.972656 7.421875 13.894531 7.492188 C 13.855469 7.523438 13.8125 7.539062 13.769531 7.539062 Z M 13.769531 7.539062 "/>
<path style=" stroke:none;fill-rule:nonzero;fill:rgb(0%,0%,0%);fill-opacity:1;" d="M 16.066406 7.539062 C 16.046875 7.539062 16.023438 7.535156 16.003906 7.527344 L 14.851562 7.113281 C 14.753906 7.078125 14.703125 6.964844 14.738281 6.867188 C 14.773438 6.765625 14.882812 6.714844 14.984375 6.75 L 16.132812 7.164062 C 16.230469 7.199219 16.285156 7.3125 16.246094 7.410156 C 16.21875 7.488281 16.144531 7.539062 16.066406 7.539062 Z M 16.066406 7.539062 "/>
<path style=" stroke:none;fill-rule:nonzero;fill:rgb(0%,0%,0%);fill-opacity:1;" d="M 13.769531 7.539062 C 13.691406 7.539062 13.617188 7.488281 13.589844 7.410156 C 13.550781 7.3125 13.605469 7.199219 13.703125 7.164062 L 14.851562 6.75 C 14.953125 6.714844 15.0625 6.765625 15.097656 6.867188 C 15.132812 6.964844 15.082031 7.078125 14.984375 7.113281 L 13.832031 7.527344 C 13.8125 7.535156 13.789062 7.539062 13.769531 7.539062 Z M 13.769531 7.539062 "/>
<path style=" stroke:none;fill-rule:nonzero;fill:rgb(0%,0%,0%);fill-opacity:1;" d="M 16.832031 3.699219 L 13.003906 3.699219 C 12.898438 3.699219 12.8125 3.613281 12.8125 3.507812 C 12.8125 3.398438 12.898438 3.3125 13.003906 3.3125 L 16.832031 3.3125 C 16.9375 3.3125 17.023438 3.398438 17.023438 3.507812 C 17.023438 3.613281 16.9375 3.699219 16.832031 3.699219 Z M 16.832031 3.699219 "/>
<path style=" stroke:none;fill-rule:nonzero;fill:rgb(0%,0%,0%);fill-opacity:1;" d="M 14.917969 6.769531 C 14.882812 6.769531 14.847656 6.761719 14.816406 6.742188 C 14.726562 6.683594 14.699219 6.566406 14.753906 6.476562 L 16.671875 3.402344 C 16.726562 3.3125 16.84375 3.285156 16.933594 3.34375 C 17.023438 3.398438 17.050781 3.519531 16.996094 3.609375 L 15.082031 6.679688 C 15.042969 6.738281 14.980469 6.769531 14.917969 6.769531 Z M 14.917969 6.769531 "/>
<path style=" stroke:none;fill-rule:nonzero;fill:rgb(0%,0%,0%);fill-opacity:1;" d="M 14.917969 6.769531 C 14.855469 6.769531 14.792969 6.738281 14.753906 6.679688 L 12.839844 3.609375 C 12.785156 3.519531 12.8125 3.398438 12.902344 3.34375 C 12.992188 3.285156 13.109375 3.3125 13.164062 3.402344 L 15.082031 6.476562 C 15.136719 6.566406 15.109375 6.683594 15.019531 6.742188 C 14.988281 6.761719 14.953125 6.769531 14.917969 6.769531 Z M 14.917969 6.769531 "/>
<g clip-path="url(#clip4)" clip-rule="nonzero">
<path style=" stroke:none;fill-rule:nonzero;fill:rgb(0%,0%,0%);fill-opacity:1;" d="M 14.917969 26.351562 C 14.8125 26.351562 14.726562 26.265625 14.726562 26.160156 L 14.726562 8.496094 C 14.726562 8.390625 14.8125 8.304688 14.917969 8.304688 C 15.023438 8.304688 15.109375 8.390625 15.109375 8.496094 L 15.109375 26.160156 C 15.109375 26.265625 15.023438 26.351562 14.917969 26.351562 Z M 14.917969 26.351562 "/>
</g>
<path style=" stroke:none;fill-rule:nonzero;fill:rgb(0%,0%,0%);fill-opacity:1;" d="M 6.882812 21.746094 C 6.777344 21.746094 6.691406 21.660156 6.691406 21.554688 C 6.691406 21.445312 6.773438 21.359375 6.878906 21.359375 L 6.882812 21.359375 C 6.992188 21.359375 7.074219 21.445312 7.074219 21.554688 C 7.074219 21.660156 6.992188 21.746094 6.882812 21.746094 Z M 6.882812 21.746094 "/>
<path style=" stroke:none;fill-rule:nonzero;fill:rgb(0%,0%,0%);fill-opacity:1;" d="M 9.171875 25.199219 C 9.066406 25.199219 8.980469 25.113281 8.980469 25.007812 L 8.980469 9.648438 C 8.980469 9.542969 9.066406 9.457031 9.171875 9.457031 C 9.277344 9.457031 9.363281 9.542969 9.363281 9.648438 L 9.363281 25.007812 C 9.363281 25.113281 9.277344 25.199219 9.171875 25.199219 Z M 9.171875 25.199219 "/>
<path style=" stroke:none;fill-rule:nonzero;fill:rgb(0%,0%,0%);fill-opacity:1;" d="M 6.488281 20.59375 C 6.382812 20.59375 6.296875 20.507812 6.296875 20.402344 L 6.296875 8.5 C 6.296875 8.394531 6.382812 8.308594 6.488281 8.308594 C 6.597656 8.308594 6.679688 8.394531 6.679688 8.5 L 6.679688 20.402344 C 6.679688 20.507812 6.597656 20.59375 6.488281 20.59375 Z M 6.488281 20.59375 "/>
<path style=" stroke:none;fill-rule:nonzero;fill:rgb(0%,0%,0%);fill-opacity:1;" d="M 8.789062 22.511719 L 6.488281 22.511719 C 6.382812 22.511719 6.296875 22.425781 6.296875 22.320312 C 6.296875 22.214844 6.382812 22.128906 6.488281 22.128906 L 8.789062 22.128906 C 8.894531 22.128906 8.980469 22.214844 8.980469 22.320312 C 8.980469 22.425781 8.894531 22.511719 8.789062 22.511719 Z M 8.789062 22.511719 "/>
<g clip-path="url(#clip5)" clip-rule="nonzero">
<path style=" stroke:none;fill-rule:nonzero;fill:rgb(0%,0%,0%);fill-opacity:1;" d="M 8.789062 20.976562 L 6.105469 20.976562 C 6 20.976562 5.914062 20.890625 5.914062 20.785156 C 5.914062 20.679688 6 20.59375 6.105469 20.59375 L 8.789062 20.59375 C 8.894531 20.59375 8.980469 20.679688 8.980469 20.785156 C 8.980469 20.890625 8.894531 20.976562 8.789062 20.976562 Z M 8.789062 20.976562 "/>
</g>
<g clip-path="url(#clip6)" clip-rule="nonzero">
<path style=" stroke:none;fill-rule:nonzero;fill:rgb(0%,0%,0%);fill-opacity:1;" d="M 6.488281 22.511719 C 6.402344 22.511719 6.324219 22.453125 6.304688 22.367188 L 5.921875 20.832031 C 5.894531 20.730469 5.957031 20.625 6.058594 20.597656 C 6.164062 20.574219 6.265625 20.636719 6.292969 20.738281 L 6.675781 22.273438 C 6.703125 22.378906 6.640625 22.480469 6.535156 22.507812 C 6.519531 22.511719 6.503906 22.511719 6.488281 22.511719 Z M 6.488281 22.511719 "/>
</g>
<path style=" stroke:none;fill-rule:nonzero;fill:rgb(0%,0%,0%);fill-opacity:1;" d="M 6.488281 8.691406 C 6.382812 8.691406 6.296875 8.605469 6.296875 8.5 C 6.296875 6.066406 8.273438 4.085938 10.703125 4.085938 C 10.808594 4.085938 10.894531 4.171875 10.894531 4.277344 C 10.894531 4.382812 10.808594 4.46875 10.703125 4.46875 C 8.484375 4.46875 6.679688 6.277344 6.679688 8.5 C 6.679688 8.605469 6.597656 8.691406 6.488281 8.691406 Z M 6.488281 8.691406 "/>
<path style=" stroke:none;fill-rule:nonzero;fill:rgb(0%,0%,0%);fill-opacity:1;" d="M 11.085938 4.46875 L 10.703125 4.46875 C 10.597656 4.46875 10.511719 4.382812 10.511719 4.277344 C 10.511719 4.171875 10.597656 4.085938 10.703125 4.085938 L 11.085938 4.085938 C 11.191406 4.085938 11.277344 4.171875 11.277344 4.277344 C 11.277344 4.382812 11.191406 4.46875 11.085938 4.46875 Z M 11.085938 4.46875 "/>
<g clip-path="url(#clip7)" clip-rule="nonzero">
<path style=" stroke:none;fill-rule:nonzero;fill:rgb(0%,0%,0%);fill-opacity:1;" d="M 22.972656 21.746094 C 22.867188 21.746094 22.78125 21.660156 22.78125 21.554688 C 22.78125 21.445312 22.863281 21.359375 22.96875 21.359375 L 22.972656 21.359375 C 23.082031 21.359375 23.164062 21.445312 23.164062 21.554688 C 23.164062 21.660156 23.082031 21.746094 22.972656 21.746094 Z M 22.972656 21.746094 "/>
</g>
<path style=" stroke:none;fill-rule:nonzero;fill:rgb(0%,0%,0%);fill-opacity:1;" d="M 20.664062 25.199219 C 20.558594 25.199219 20.472656 25.113281 20.472656 25.007812 L 20.472656 9.648438 C 20.472656 9.542969 20.558594 9.457031 20.664062 9.457031 C 20.769531 9.457031 20.855469 9.542969 20.855469 9.648438 L 20.855469 25.007812 C 20.855469 25.113281 20.769531 25.199219 20.664062 25.199219 Z M 20.664062 25.199219 "/>
<g clip-path="url(#clip8)" clip-rule="nonzero">
<path style=" stroke:none;fill-rule:nonzero;fill:rgb(0%,0%,0%);fill-opacity:1;" d="M 23.347656 20.59375 C 23.238281 20.59375 23.15625 20.507812 23.15625 20.402344 L 23.15625 8.5 C 23.15625 8.394531 23.238281 8.308594 23.347656 8.308594 C 23.453125 8.308594 23.539062 8.394531 23.539062 8.5 L 23.539062 20.402344 C 23.539062 20.507812 23.453125 20.59375 23.347656 20.59375 Z M 23.347656 20.59375 "/>
</g>
<g clip-path="url(#clip9)" clip-rule="nonzero">
<path style=" stroke:none;fill-rule:nonzero;fill:rgb(0%,0%,0%);fill-opacity:1;" d="M 23.347656 22.511719 L 21.046875 22.511719 C 20.941406 22.511719 20.855469 22.425781 20.855469 22.320312 C 20.855469 22.214844 20.941406 22.128906 21.046875 22.128906 L 23.347656 22.128906 C 23.453125 22.128906 23.539062 22.214844 23.539062 22.320312 C 23.539062 22.425781 23.453125 22.511719 23.347656 22.511719 Z M 23.347656 22.511719 "/>
</g>
<g clip-path="url(#clip10)" clip-rule="nonzero">
<path style=" stroke:none;fill-rule:nonzero;fill:rgb(0%,0%,0%);fill-opacity:1;" d="M 23.730469 20.976562 L 21.046875 20.976562 C 20.941406 20.976562 20.855469 20.890625 20.855469 20.785156 C 20.855469 20.679688 20.941406 20.59375 21.046875 20.59375 L 23.730469 20.59375 C 23.835938 20.59375 23.921875 20.679688 23.921875 20.785156 C 23.921875 20.890625 23.835938 20.976562 23.730469 20.976562 Z M 23.730469 20.976562 "/>
</g>
<g clip-path="url(#clip11)" clip-rule="nonzero">
<path style=" stroke:none;fill-rule:nonzero;fill:rgb(0%,0%,0%);fill-opacity:1;" d="M 23.347656 22.511719 C 23.332031 22.511719 23.316406 22.511719 23.300781 22.507812 C 23.195312 22.480469 23.132812 22.378906 23.160156 22.273438 L 23.542969 20.738281 C 23.570312 20.636719 23.671875 20.574219 23.777344 20.597656 C 23.878906 20.625 23.941406 20.730469 23.914062 20.832031 L 23.53125 22.367188 C 23.511719 22.453125 23.433594 22.511719 23.347656 22.511719 Z M 23.347656 22.511719 "/>
</g>
<g clip-path="url(#clip12)" clip-rule="nonzero">
<path style=" stroke:none;fill-rule:nonzero;fill:rgb(0%,0%,0%);fill-opacity:1;" d="M 23.347656 8.691406 C 23.238281 8.691406 23.15625 8.605469 23.15625 8.5 C 23.15625 6.277344 21.351562 4.46875 19.132812 4.46875 C 19.027344 4.46875 18.941406 4.382812 18.941406 4.277344 C 18.941406 4.171875 19.027344 4.085938 19.132812 4.085938 C 21.5625 4.085938 23.539062 6.066406 23.539062 8.5 C 23.539062 8.605469 23.453125 8.691406 23.347656 8.691406 Z M 23.347656 8.691406 "/>
</g>
<path style=" stroke:none;fill-rule:nonzero;fill:rgb(0%,0%,0%);fill-opacity:1;" d="M 19.132812 4.46875 L 18.75 4.46875 C 18.644531 4.46875 18.558594 4.382812 18.558594 4.277344 C 18.558594 4.171875 18.644531 4.085938 18.75 4.085938 L 19.132812 4.085938 C 19.238281 4.085938 19.324219 4.171875 19.324219 4.277344 C 19.324219 4.382812 19.238281 4.46875 19.132812 4.46875 Z M 19.132812 4.46875 "/>
<g clip-path="url(#clip13)" clip-rule="nonzero">
<path style=" stroke:none;fill-rule:nonzero;fill:rgb(0%,0%,0%);fill-opacity:1;" d="M 14.917969 26.738281 C 10.671875 26.738281 9.101562 25.210938 9.035156 25.144531 C 8.960938 25.070312 8.960938 24.949219 9.035156 24.875 C 9.109375 24.796875 9.230469 24.796875 9.304688 24.871094 C 9.320312 24.886719 10.851562 26.351562 14.917969 26.351562 C 19.003906 26.351562 20.515625 24.886719 20.527344 24.871094 C 20.605469 24.796875 20.726562 24.796875 20.800781 24.871094 C 20.875 24.949219 20.875 25.070312 20.800781 25.144531 C 20.734375 25.210938 19.164062 26.738281 14.917969 26.738281 Z M 14.917969 26.738281 "/>
</g>
</g>
</svg>
