<?xml version="1.0" encoding="UTF-8"?>
<svg xmlns="http://www.w3.org/2000/svg" xmlns:xlink="http://www.w3.org/1999/xlink" width="30pt" height="30.000001pt" viewBox="0 0 30 30.000001" version="1.2">
<defs>
<clipPath id="clip1">
  <path d="M 3 6 L 27.394531 6 L 27.394531 28 L 3 28 Z M 3 6 "/>
</clipPath>
</defs>
<g id="surface1">
<path style=" stroke:none;fill-rule:nonzero;fill:rgb(0%,0%,0%);fill-opacity:1;" d="M 13.265625 5.347656 L 17.484375 5.347656 L 17.484375 6.375 L 13.265625 6.375 Z M 13.265625 5.347656 "/>
<g clip-path="url(#clip1)" clip-rule="nonzero">
<path style=" stroke:none;fill-rule:nonzero;fill:rgb(0%,0%,0%);fill-opacity:1;" d="M 26.980469 27.960938 L 23.738281 27.960938 C 23.484375 27.960938 23.265625 27.78125 23.21875 27.539062 L 21.703125 19.332031 L 21.703125 27.445312 C 21.703125 27.730469 21.46875 27.960938 21.175781 27.960938 L 9.574219 27.960938 C 9.28125 27.960938 9.046875 27.730469 9.046875 27.445312 L 9.046875 19.332031 L 7.527344 27.539062 C 7.484375 27.78125 7.265625 27.960938 7.011719 27.960938 L 3.769531 27.960938 C 3.617188 27.960938 3.472656 27.894531 3.371094 27.78125 C 3.269531 27.667969 3.226562 27.519531 3.25 27.371094 L 5.960938 9.386719 C 5.984375 9.242188 6.066406 9.113281 6.1875 9.035156 L 10.144531 6.449219 C 10.390625 6.289062 10.714844 6.351562 10.878906 6.589844 C 11.039062 6.824219 10.976562 7.144531 10.734375 7.300781 L 6.972656 9.761719 L 4.382812 26.933594 L 6.570312 26.933594 L 9.054688 13.480469 C 9.101562 13.21875 9.351562 13.039062 9.621094 13.058594 C 9.894531 13.082031 10.101562 13.304688 10.101562 13.570312 L 10.101562 26.933594 L 20.652344 26.933594 L 20.652344 13.570312 C 20.652344 13.304688 20.859375 13.082031 21.132812 13.058594 C 21.40625 13.039062 21.648438 13.21875 21.699219 13.480469 L 24.183594 26.933594 L 26.371094 26.933594 L 23.78125 9.75 L 20.113281 7.183594 C 19.875 7.015625 19.824219 6.695312 19.992188 6.464844 C 20.160156 6.234375 20.488281 6.183594 20.730469 6.347656 L 24.574219 9.042969 C 24.691406 9.125 24.769531 9.25 24.789062 9.386719 L 27.5 27.371094 C 27.523438 27.519531 27.480469 27.667969 27.378906 27.78125 C 27.277344 27.894531 27.132812 27.960938 26.980469 27.960938 Z M 26.980469 27.960938 "/>
</g>
<path style=" stroke:none;fill-rule:nonzero;fill:rgb(0%,0%,0%);fill-opacity:1;" d="M 18.539062 9.972656 C 18.398438 9.972656 18.265625 9.921875 18.167969 9.824219 L 16.054688 7.769531 C 15.851562 7.566406 15.851562 7.242188 16.054688 7.042969 C 16.261719 6.839844 16.597656 6.839844 16.800781 7.042969 L 18.457031 8.652344 L 20.019531 6.367188 L 18.707031 4.320312 L 12.128906 4.320312 L 10.734375 6.375 L 12.292969 8.652344 L 13.945312 7.042969 C 14.152344 6.839844 14.488281 6.839844 14.691406 7.042969 C 14.898438 7.242188 14.898438 7.566406 14.691406 7.769531 L 12.582031 9.824219 C 12.472656 9.933594 12.320312 9.988281 12.15625 9.972656 C 12 9.957031 11.859375 9.875 11.769531 9.746094 L 9.660156 6.664062 C 9.542969 6.492188 9.542969 6.265625 9.660156 6.09375 L 11.40625 3.523438 C 11.503906 3.378906 11.667969 3.292969 11.847656 3.292969 L 19 3.292969 C 19.179688 3.292969 19.351562 3.382812 19.445312 3.535156 L 21.097656 6.105469 C 21.207031 6.277344 21.203125 6.492188 21.085938 6.660156 L 18.976562 9.746094 C 18.890625 9.871094 18.746094 9.957031 18.589844 9.96875 C 18.574219 9.972656 18.558594 9.972656 18.539062 9.972656 Z M 18.539062 9.972656 "/>
<path style=" stroke:none;fill-rule:nonzero;fill:rgb(0%,0%,0%);fill-opacity:1;" d="M 15.375 13.570312 C 15.238281 13.570312 15.101562 13.519531 15.003906 13.425781 C 14.898438 13.324219 14.847656 13.191406 14.847656 13.058594 C 14.847656 12.921875 14.898438 12.789062 14.996094 12.699219 C 15.214844 12.492188 15.542969 12.503906 15.742188 12.6875 C 15.847656 12.789062 15.902344 12.921875 15.902344 13.058594 C 15.902344 13.191406 15.847656 13.324219 15.753906 13.417969 C 15.648438 13.523438 15.511719 13.570312 15.375 13.570312 Z M 15.375 13.570312 "/>
<path style=" stroke:none;fill-rule:nonzero;fill:rgb(0%,0%,0%);fill-opacity:1;" d="M 15.375 16.652344 C 15.238281 16.652344 15.101562 16.605469 15.003906 16.511719 C 14.898438 16.40625 14.847656 16.273438 14.847656 16.140625 C 14.847656 16.007812 14.898438 15.875 14.996094 15.78125 C 15.214844 15.574219 15.542969 15.585938 15.742188 15.769531 C 15.847656 15.875 15.902344 16.007812 15.902344 16.140625 C 15.902344 16.273438 15.847656 16.410156 15.753906 16.5 C 15.648438 16.605469 15.511719 16.652344 15.375 16.652344 Z M 15.375 16.652344 "/>
<path style=" stroke:none;fill-rule:nonzero;fill:rgb(0%,0%,0%);fill-opacity:1;" d="M 15.375 19.738281 C 15.238281 19.738281 15.101562 19.6875 15.003906 19.59375 C 14.898438 19.488281 14.847656 19.359375 14.847656 19.222656 C 14.847656 19.089844 14.898438 18.957031 15.003906 18.863281 C 15.207031 18.667969 15.554688 18.667969 15.742188 18.863281 C 15.847656 18.957031 15.902344 19.089844 15.902344 19.222656 C 15.902344 19.359375 15.847656 19.492188 15.742188 19.585938 C 15.648438 19.6875 15.511719 19.738281 15.375 19.738281 Z M 15.375 19.738281 "/>
<path style=" stroke:none;fill-rule:nonzero;fill:rgb(0%,0%,0%);fill-opacity:1;" d="M 15.375 22.820312 C 15.238281 22.820312 15.101562 22.769531 15.003906 22.675781 C 14.898438 22.574219 14.847656 22.441406 14.847656 22.308594 C 14.847656 22.175781 14.898438 22.039062 15.003906 21.945312 C 15.207031 21.753906 15.554688 21.753906 15.742188 21.945312 C 15.847656 22.039062 15.902344 22.175781 15.902344 22.308594 C 15.902344 22.441406 15.847656 22.578125 15.742188 22.667969 C 15.648438 22.769531 15.511719 22.820312 15.375 22.820312 Z M 15.375 22.820312 "/>
<path style=" stroke:none;fill-rule:nonzero;fill:rgb(0%,0%,0%);fill-opacity:1;" d="M 15.375 25.902344 C 15.238281 25.902344 15.101562 25.855469 15.003906 25.761719 C 14.898438 25.65625 14.847656 25.523438 14.847656 25.390625 C 14.847656 25.257812 14.898438 25.125 15.003906 25.03125 C 15.207031 24.835938 15.542969 24.835938 15.742188 25.019531 C 15.847656 25.125 15.902344 25.257812 15.902344 25.390625 C 15.902344 25.523438 15.847656 25.660156 15.742188 25.75 C 15.636719 25.855469 15.511719 25.902344 15.375 25.902344 Z M 15.375 25.902344 "/>
<path style=" stroke:none;fill-rule:nonzero;fill:rgb(0%,0%,0%);fill-opacity:1;" d="M 24.871094 24.875 L 26.980469 24.875 L 26.980469 25.902344 L 24.871094 25.902344 Z M 24.871094 24.875 "/>
<path style=" stroke:none;fill-rule:nonzero;fill:rgb(0%,0%,0%);fill-opacity:1;" d="M 25.925781 25.902344 L 23.8125 25.902344 C 23.523438 25.902344 23.285156 25.675781 23.285156 25.390625 C 23.285156 25.109375 23.523438 24.875 23.8125 24.875 L 25.925781 24.875 C 26.214844 24.875 26.453125 25.109375 26.453125 25.390625 C 26.453125 25.675781 26.214844 25.902344 25.925781 25.902344 Z M 25.925781 25.902344 "/>
<path style=" stroke:none;fill-rule:nonzero;fill:rgb(0%,0%,0%);fill-opacity:1;" d="M 3.769531 24.875 L 5.878906 24.875 L 5.878906 25.902344 L 3.769531 25.902344 Z M 3.769531 24.875 "/>
<path style=" stroke:none;fill-rule:nonzero;fill:rgb(0%,0%,0%);fill-opacity:1;" d="M 6.933594 25.902344 L 4.824219 25.902344 C 4.535156 25.902344 4.296875 25.675781 4.296875 25.390625 C 4.296875 25.109375 4.535156 24.875 4.824219 24.875 L 6.933594 24.875 C 7.226562 24.875 7.460938 25.109375 7.460938 25.390625 C 7.460938 25.675781 7.226562 25.902344 6.933594 25.902344 Z M 6.933594 25.902344 "/>
<path style=" stroke:none;fill-rule:nonzero;fill:rgb(0%,0%,0%);fill-opacity:1;" d="M 15.375 8.945312 C 15.21875 8.9375 15.050781 8.867188 14.953125 8.738281 L 11.425781 4.113281 C 11.25 3.886719 11.296875 3.5625 11.53125 3.394531 C 11.769531 3.222656 12.097656 3.273438 12.269531 3.5 L 15.382812 7.578125 L 18.582031 3.496094 C 18.761719 3.269531 19.089844 3.226562 19.324219 3.398438 C 19.554688 3.570312 19.597656 3.890625 19.421875 4.117188 L 15.792969 8.742188 C 15.695312 8.871094 15.539062 8.945312 15.375 8.945312 Z M 15.375 8.945312 "/>
</g>
</svg>
