<?xml version="1.0" encoding="UTF-8"?>
<svg xmlns="http://www.w3.org/2000/svg" xmlns:xlink="http://www.w3.org/1999/xlink" width="30pt" height="30.000001pt" viewBox="0 0 30 30.000001" version="1.2">
<defs>
<clipPath id="clip1">
  <path d="M 0.484375 0 L 29.515625 0 L 29.515625 29.03125 L 0.484375 29.03125 Z M 0.484375 0 "/>
</clipPath>
<clipPath id="clip2">
  <path d="M 2.871094 11.152344 L 27.519531 11.152344 L 27.519531 21.957031 L 2.871094 21.957031 Z M 2.871094 11.152344 "/>
</clipPath>
</defs>
<g id="surface1">
<g clip-path="url(#clip1)" clip-rule="nonzero">
<path style=" stroke:none;fill-rule:nonzero;fill:rgb(100%,100%,100%);fill-opacity:1;" d="M 0.484375 0 L 29.515625 0 L 29.515625 29.03125 L 0.484375 29.03125 Z M 0.484375 0 "/>
<path style=" stroke:none;fill-rule:nonzero;fill:rgb(100%,100%,100%);fill-opacity:1;" d="M 0.484375 0 L 29.515625 0 L 29.515625 29.03125 L 0.484375 29.03125 Z M 0.484375 0 "/>
</g>
<g clip-path="url(#clip2)" clip-rule="nonzero">
<path style=" stroke:none;fill-rule:nonzero;fill:rgb(0%,0%,0%);fill-opacity:1;" d="M 27.457031 19.871094 C 27.457031 20.378906 26.558594 20.734375 26.21875 20.828125 C 24.386719 21.300781 22.300781 21.460938 19.332031 21.578125 L 4.667969 21.578125 C 3.902344 21.578125 3.277344 20.984375 3.277344 20.253906 L 3.277344 19.492188 L 19.339844 19.492188 C 22.199219 19.375 25.402344 19.210938 27.28125 18.742188 C 27.328125 18.746094 27.367188 18.765625 27.398438 18.792969 C 27.4375 18.828125 27.457031 18.875 27.457031 18.925781 Z M 4.4375 13.421875 C 4.539062 13.417969 4.632812 13.460938 4.703125 13.535156 L 5.289062 14.472656 C 5.292969 14.476562 5.296875 14.484375 5.300781 14.492188 C 5.71875 15 6.246094 15.289062 6.847656 15.320312 L 8.433594 15.320312 C 10.339844 15.320312 10.820312 14.761719 11.285156 14.222656 C 11.425781 14.058594 11.558594 13.902344 11.730469 13.761719 C 12.121094 13.445312 12.433594 13.269531 12.714844 13.171875 C 12.351562 13.472656 12.058594 13.832031 11.769531 14.183594 C 11.132812 14.960938 10.53125 15.699219 9.226562 15.699219 L 7.046875 15.699219 C 6.613281 15.699219 6.050781 15.660156 5.570312 15.355469 C 5.394531 15.238281 4.757812 14.523438 4.265625 13.496094 C 4.308594 13.453125 4.367188 13.425781 4.4375 13.421875 Z M 11.542969 11.664062 C 11.777344 11.441406 12.089844 11.503906 12.460938 11.851562 L 13.320312 12.675781 C 12.746094 12.714844 12.230469 12.863281 11.472656 13.472656 C 11.320312 13.597656 11.195312 13.730469 11.082031 13.863281 C 10.894531 13.0625 11.074219 12.164062 11.542969 11.664062 Z M 14.957031 13.445312 L 14.429688 14.054688 C 14.382812 14.101562 14.34375 14.152344 14.308594 14.203125 C 13.839844 13.964844 13.390625 13.726562 12.949219 13.480469 C 13.148438 13.308594 13.375 13.160156 13.632812 13.046875 C 13.664062 13.046875 13.695312 13.046875 13.726562 13.046875 C 14.003906 13.050781 14.285156 13.113281 14.539062 13.242188 C 14.667969 13.308594 14.808594 13.375 14.957031 13.445312 Z M 21.214844 15.867188 L 20.371094 16.910156 C 20.21875 17.050781 20.058594 17.054688 19.976562 16.980469 C 19.890625 16.898438 19.925781 16.742188 20.082031 16.582031 L 20.773438 15.730469 L 20.914062 15.777344 C 21.015625 15.808594 21.117188 15.835938 21.214844 15.867188 Z M 22.210938 16.183594 C 21.988281 16.464844 21.816406 16.734375 21.691406 17.125 C 21.429688 17.054688 21.160156 16.976562 20.882812 16.894531 L 21.617188 15.992188 C 21.824219 16.058594 22.023438 16.121094 22.210938 16.183594 Z M 20.378906 15.597656 L 19.78125 16.335938 C 19.730469 16.390625 19.6875 16.445312 19.652344 16.5 C 19.4375 16.425781 19.222656 16.347656 19.003906 16.265625 L 19.773438 15.378906 C 20.023438 15.46875 20.226562 15.542969 20.378906 15.597656 Z M 19.382812 15.238281 L 18.597656 16.140625 C 18.4375 16.292969 18.273438 16.296875 18.191406 16.222656 C 18.105469 16.140625 18.140625 15.984375 18.296875 15.828125 L 18.949219 15.074219 C 19.101562 15.132812 19.246094 15.1875 19.382812 15.238281 Z M 18.5625 14.929688 L 17.996094 15.578125 C 17.921875 15.65625 17.867188 15.738281 17.828125 15.816406 C 17.617188 15.730469 17.402344 15.640625 17.183594 15.550781 L 17.933594 14.6875 C 18.148438 14.773438 18.359375 14.851562 18.5625 14.929688 Z M 17.546875 14.539062 L 16.8125 15.382812 C 16.652344 15.535156 16.488281 15.539062 16.40625 15.464844 C 16.375 15.433594 16.355469 15.386719 16.363281 15.324219 C 16.367188 15.3125 16.371094 15.296875 16.375 15.285156 C 16.375 15.277344 16.378906 15.269531 16.378906 15.261719 C 16.382812 15.253906 16.386719 15.246094 16.390625 15.234375 C 16.398438 15.222656 16.402344 15.210938 16.410156 15.199219 C 16.410156 15.199219 16.414062 15.195312 16.414062 15.195312 C 16.4375 15.15625 16.46875 15.113281 16.511719 15.070312 L 17.121094 14.371094 C 17.261719 14.425781 17.40625 14.484375 17.546875 14.539062 Z M 16.738281 14.214844 L 16.214844 14.820312 C 16.175781 14.859375 16.140625 14.902344 16.113281 14.941406 C 16.097656 14.960938 16.085938 14.984375 16.074219 15.003906 C 16.066406 15.019531 16.054688 15.03125 16.046875 15.046875 C 15.847656 14.957031 15.640625 14.859375 15.425781 14.753906 L 16.117188 13.960938 C 16.320312 14.046875 16.527344 14.132812 16.738281 14.214844 Z M 15.742188 13.800781 L 15.03125 14.617188 C 15.011719 14.636719 14.996094 14.648438 14.976562 14.664062 C 14.972656 14.664062 14.96875 14.667969 14.96875 14.671875 C 14.828125 14.773438 14.691406 14.773438 14.625 14.710938 C 14.546875 14.640625 14.546875 14.488281 14.726562 14.304688 L 15.328125 13.617188 C 15.460938 13.675781 15.597656 13.738281 15.742188 13.800781 Z M 7.621094 19.113281 C 6.949219 16.785156 4.832031 15.933594 3.722656 15.640625 C 3.761719 15.570312 3.800781 15.496094 3.84375 15.425781 C 4.074219 15.066406 4.074219 14.867188 4.070312 14.613281 L 4.070312 14.570312 C 4.070312 14.464844 4.074219 14.246094 4.097656 14.03125 C 4.550781 14.859375 5.09375 15.503906 5.351562 15.667969 C 5.917969 16.03125 6.554688 16.078125 7.046875 16.078125 L 9.226562 16.078125 C 10.722656 16.078125 11.414062 15.234375 12.082031 14.414062 C 12.273438 14.1875 12.457031 13.960938 12.65625 13.757812 C 13.152344 14.03125 13.652344 14.300781 14.179688 14.566406 C 14.171875 14.734375 14.242188 14.882812 14.347656 14.980469 C 14.449219 15.074219 14.589844 15.132812 14.746094 15.132812 C 14.863281 15.132812 14.984375 15.097656 15.109375 15.027344 C 15.417969 15.175781 15.703125 15.3125 15.972656 15.433594 C 15.992188 15.558594 16.050781 15.660156 16.132812 15.738281 C 16.234375 15.835938 16.378906 15.890625 16.535156 15.890625 C 16.632812 15.890625 16.738281 15.867188 16.84375 15.820312 C 17.152344 15.953125 17.457031 16.078125 17.757812 16.199219 C 17.777344 16.316406 17.835938 16.421875 17.917969 16.496094 C 18.019531 16.589844 18.160156 16.648438 18.320312 16.648438 C 18.433594 16.648438 18.554688 16.613281 18.671875 16.550781 C 18.960938 16.660156 19.25 16.761719 19.535156 16.859375 C 19.53125 17.019531 19.601562 17.160156 19.703125 17.253906 C 19.804688 17.347656 19.953125 17.40625 20.113281 17.40625 C 20.273438 17.40625 20.449219 17.34375 20.609375 17.210938 C 20.945312 17.3125 21.277344 17.40625 21.597656 17.496094 C 21.519531 17.871094 21.46875 18.359375 21.445312 19.015625 C 20.738281 19.054688 20.023438 19.085938 19.332031 19.113281 Z M 3.277344 19.113281 L 3.277344 17.78125 C 3.230469 17.152344 3.328125 16.542969 3.554688 15.992188 C 4.554688 16.242188 6.542969 17.003906 7.210938 19.113281 Z M 27.050781 18.40625 C 25.746094 18.710938 23.828125 18.878906 21.84375 18.996094 C 21.910156 17.253906 22.160156 16.847656 22.605469 16.316406 C 23.191406 16.503906 24.089844 16.726562 24.644531 16.835938 C 25.90625 17.082031 26.960938 17.375 27.050781 18.40625 Z M 27.679688 18.523438 C 27.613281 18.460938 27.53125 18.417969 27.445312 18.394531 C 27.335938 16.980469 25.773438 16.667969 24.722656 16.464844 C 24.148438 16.351562 23.140625 16.097656 22.59375 15.910156 C 22.585938 15.90625 22.578125 15.90625 22.570312 15.902344 C 22.117188 15.746094 21.59375 15.585938 21.035156 15.414062 L 20.785156 15.339844 C 20.746094 15.324219 16.609375 13.867188 14.722656 12.90625 C 14.460938 12.773438 14.171875 12.695312 13.878906 12.675781 L 12.738281 11.582031 C 12.203125 11.082031 11.664062 11.011719 11.257812 11.402344 C 10.636719 12.0625 10.441406 13.226562 10.773438 14.214844 C 10.386719 14.625 9.886719 14.941406 8.433594 14.941406 L 6.859375 14.945312 C 6.269531 14.910156 5.863281 14.558594 5.625 14.265625 L 5.035156 13.328125 C 5.03125 13.320312 5.023438 13.3125 5.019531 13.308594 C 4.871094 13.132812 4.648438 13.03125 4.417969 13.042969 C 4.203125 13.054688 4.015625 13.15625 3.90625 13.324219 C 3.703125 13.628906 3.675781 14.152344 3.675781 14.570312 L 3.675781 14.613281 C 3.675781 14.84375 3.675781 14.960938 3.507812 15.230469 C 3.027344 15.984375 2.8125 16.875 2.882812 17.792969 L 2.882812 20.253906 C 2.882812 21.195312 3.683594 21.957031 4.667969 21.957031 L 19.339844 21.957031 C 22.347656 21.839844 24.453125 21.675781 26.320312 21.195312 C 26.382812 21.175781 27.851562 20.769531 27.851562 19.871094 L 27.851562 18.925781 C 27.851562 18.773438 27.792969 18.628906 27.679688 18.523438 "/>
</g>
</g>
</svg>
