<?xml version="1.0" encoding="UTF-8"?>
<svg xmlns="http://www.w3.org/2000/svg" xmlns:xlink="http://www.w3.org/1999/xlink" width="30pt" height="30.000001pt" viewBox="0 0 30 30.000001" version="1.2">
<defs>
<clipPath id="clip1">
  <path d="M 1.386719 5.332031 L 28.941406 5.332031 L 28.941406 23.476562 L 1.386719 23.476562 Z M 1.386719 5.332031 "/>
</clipPath>
</defs>
<g id="surface1">
<g clip-path="url(#clip1)" clip-rule="nonzero">
<path style=" stroke:none;fill-rule:nonzero;fill:rgb(6.269836%,5.879211%,5.099487%);fill-opacity:1;" d="M 28.03125 21.132812 L 16.460938 23.050781 C 16.144531 23.050781 16.136719 23.042969 16.039062 22.589844 L 15.824219 21.324219 C 15.828125 21.132812 15.871094 21.007812 16.296875 20.914062 L 27.867188 18.996094 C 28.042969 18.996094 28.195312 19.042969 28.289062 19.457031 L 28.503906 20.71875 C 28.5 20.875 28.453125 21.042969 28.03125 21.132812 Z M 14.429688 20.589844 C 14.324219 20.546875 14.214844 20.515625 14.105469 20.492188 L 2.703125 18.601562 C 2.722656 17.382812 2.804688 16.140625 2.910156 14.964844 C 6.84375 13.613281 6.917969 9.75 6.867188 8.75 L 14.941406 8.75 L 14.941406 19.789062 Z M 14.289062 22.578125 C 14.191406 23.042969 14.183594 23.050781 13.867188 23.050781 L 2.308594 21.136719 C 1.878906 21.042969 1.828125 20.875 1.824219 20.71875 L 2.039062 19.46875 C 2.132812 19.042969 2.285156 18.996094 2.460938 18.996094 L 14.019531 20.910156 C 14.460938 21.007812 14.5 21.132812 14.503906 21.324219 Z M 3.757812 8.75 L 5.535156 8.75 C 5.472656 10.121094 5.039062 12.3125 3.058594 13.523438 C 3.324219 11.183594 3.652344 9.308594 3.757812 8.75 Z M 2.957031 14.496094 C 2.96875 14.34375 2.984375 14.195312 3 14.050781 C 5.40625 12.78125 5.90625 10.273438 5.972656 8.75 L 6.433594 8.75 C 6.492188 9.613281 6.507812 13.152344 2.957031 14.496094 Z M 3.792969 6.398438 C 3.792969 6.046875 4.085938 5.761719 4.449219 5.761719 L 9.039062 5.761719 L 9.039062 8.320312 L 3.792969 8.320312 Z M 26.527344 6.398438 L 26.527344 8.320312 L 21.28125 8.320312 L 21.28125 5.761719 L 25.871094 5.761719 C 26.234375 5.761719 26.527344 6.046875 26.527344 6.398438 Z M 24.347656 8.75 C 24.414062 10.273438 24.914062 12.78125 27.320312 14.050781 C 27.335938 14.195312 27.351562 14.34375 27.363281 14.496094 C 23.8125 13.152344 23.828125 9.613281 23.886719 8.75 Z M 27.261719 13.523438 C 25.28125 12.3125 24.847656 10.121094 24.785156 8.75 L 26.5625 8.75 C 26.667969 9.308594 26.996094 11.183594 27.261719 13.523438 Z M 17.347656 8.75 L 17.347656 15.367188 C 17.347656 17.257812 16.617188 17.476562 15.507812 17.808594 C 15.46875 17.824219 15.421875 17.835938 15.378906 17.851562 L 15.378906 8.75 Z M 20.40625 8.320312 L 20.40625 5.761719 L 20.84375 5.761719 L 20.84375 8.320312 Z M 19.96875 5.761719 L 19.96875 8.320312 L 15.378906 8.320312 L 15.378906 6.398438 C 15.378906 6.046875 15.671875 5.761719 16.035156 5.761719 Z M 10.351562 5.761719 L 15.167969 5.761719 C 15.027344 5.9375 14.941406 6.160156 14.941406 6.398438 L 14.941406 8.320312 L 10.351562 8.320312 Z M 9.476562 8.320312 L 9.476562 5.761719 L 9.914062 5.761719 L 9.914062 8.320312 Z M 15.894531 20.589844 L 15.378906 19.789062 L 15.378906 18.296875 C 15.464844 18.269531 15.554688 18.242188 15.636719 18.21875 C 16.789062 17.871094 17.785156 17.574219 17.785156 15.367188 L 17.785156 8.75 L 23.453125 8.75 C 23.402344 9.75 23.480469 13.613281 27.410156 14.964844 C 27.515625 16.140625 27.597656 17.382812 27.617188 18.601562 L 16.214844 20.496094 C 16.105469 20.519531 15.996094 20.550781 15.894531 20.589844 Z M 28.9375 20.667969 L 28.71875 19.375 C 28.648438 19.070312 28.503906 18.679688 28.054688 18.589844 C 28.03125 17.316406 27.949219 16.023438 27.832031 14.804688 C 27.832031 14.796875 27.832031 14.792969 27.832031 14.785156 C 27.527344 11.507812 27.015625 8.777344 26.964844 8.515625 L 26.964844 6.398438 C 26.964844 5.8125 26.476562 5.332031 25.871094 5.332031 L 4.449219 5.332031 C 3.84375 5.332031 3.355469 5.8125 3.355469 6.398438 L 3.355469 8.515625 C 3.304688 8.773438 2.792969 11.507812 2.488281 14.785156 C 2.488281 14.789062 2.488281 14.796875 2.488281 14.804688 C 2.371094 16.023438 2.289062 17.320312 2.265625 18.589844 C 1.820312 18.683594 1.679688 19.074219 1.609375 19.386719 L 1.390625 20.667969 C 1.386719 20.679688 1.386719 20.691406 1.386719 20.703125 C 1.386719 21.148438 1.664062 21.433594 2.226562 21.554688 L 13.8125 23.476562 C 13.824219 23.476562 13.835938 23.476562 13.847656 23.476562 C 14.515625 23.476562 14.605469 23.199219 14.71875 22.660156 L 14.9375 21.378906 C 14.941406 21.367188 14.941406 21.355469 14.941406 21.34375 C 14.941406 21.121094 14.882812 20.960938 14.785156 20.839844 L 15.160156 20.25 L 15.539062 20.84375 C 15.445312 20.964844 15.386719 21.125 15.386719 21.34375 C 15.386719 21.355469 15.386719 21.367188 15.390625 21.378906 L 15.609375 22.667969 C 15.726562 23.199219 15.8125 23.476562 16.480469 23.476562 C 16.492188 23.476562 16.503906 23.476562 16.515625 23.476562 L 28.113281 21.550781 C 28.664062 21.433594 28.941406 21.148438 28.941406 20.703125 C 28.941406 20.691406 28.941406 20.679688 28.9375 20.667969 "/>
</g>
<path style=" stroke:none;fill-rule:nonzero;fill:rgb(6.269836%,5.879211%,5.099487%);fill-opacity:1;" d="M 16.691406 6.613281 C 16.929688 6.613281 17.128906 6.804688 17.128906 7.039062 C 17.128906 7.277344 16.929688 7.46875 16.691406 7.46875 C 16.449219 7.46875 16.253906 7.277344 16.253906 7.039062 C 16.253906 6.804688 16.449219 6.613281 16.691406 6.613281 Z M 16.691406 7.894531 C 17.171875 7.894531 17.566406 7.511719 17.566406 7.039062 C 17.566406 6.570312 17.171875 6.1875 16.691406 6.1875 C 16.207031 6.1875 15.816406 6.570312 15.816406 7.039062 C 15.816406 7.511719 16.207031 7.894531 16.691406 7.894531 "/>
</g>
</svg>
