<?xml version="1.0" encoding="UTF-8"?>
<svg xmlns="http://www.w3.org/2000/svg" xmlns:xlink="http://www.w3.org/1999/xlink" width="30pt" height="30.000001pt" viewBox="0 0 30 30.000001" version="1.2">
<defs>
<clipPath id="clip1">
  <path d="M 2.402344 1.726562 L 27.804688 1.726562 L 27.804688 26.960938 L 2.402344 26.960938 Z M 2.402344 1.726562 "/>
</clipPath>
</defs>
<g id="surface1">
<path style=" stroke:none;fill-rule:nonzero;fill:rgb(6.269836%,5.879211%,5.099487%);fill-opacity:1;" d="M 20.84375 4.730469 L 9.558594 4.730469 C 9.386719 4.730469 9.25 4.597656 9.25 4.429688 C 9.25 4.265625 9.386719 4.132812 9.558594 4.132812 L 20.84375 4.132812 C 21.015625 4.132812 21.152344 4.265625 21.152344 4.429688 C 21.152344 4.597656 21.015625 4.730469 20.84375 4.730469 "/>
<g clip-path="url(#clip1)" clip-rule="nonzero">
<path style=" stroke:none;fill-rule:nonzero;fill:rgb(6.269836%,5.879211%,5.099487%);fill-opacity:1;" d="M 24.144531 23.734375 L 20.757812 7.785156 C 20.722656 7.621094 20.558594 7.519531 20.390625 7.550781 C 20.226562 7.585938 20.117188 7.742188 20.152344 7.90625 L 23.710938 24.65625 L 19.753906 25.253906 L 17.671875 8.21875 C 17.652344 8.054688 17.5 7.9375 17.328125 7.957031 C 17.160156 7.976562 17.039062 8.125 17.058594 8.289062 L 19.246094 26.203125 C 16.5625 26.417969 13.839844 26.417969 11.15625 26.203125 L 13.347656 8.289062 C 13.367188 8.125 13.246094 7.976562 13.074219 7.957031 C 12.90625 7.9375 12.753906 8.054688 12.734375 8.21875 L 10.652344 25.253906 L 6.695312 24.65625 L 10.253906 7.90625 C 10.289062 7.742188 10.179688 7.585938 10.011719 7.550781 C 9.84375 7.519531 9.683594 7.621094 9.648438 7.785156 L 6.257812 23.734375 L 3.0625 23.214844 C 5.421875 13.46875 7.679688 7.242188 9.015625 4.65625 C 9.078125 4.53125 9.117188 4.398438 9.128906 4.261719 L 9.300781 2.417969 C 9.304688 2.363281 9.347656 2.324219 9.402344 2.324219 L 21 2.324219 C 21.054688 2.324219 21.097656 2.363281 21.105469 2.417969 L 21.273438 4.261719 C 21.289062 4.398438 21.328125 4.53125 21.390625 4.65625 C 22.722656 7.242188 24.984375 13.46875 27.34375 23.214844 Z M 27.96875 23.179688 C 25.589844 13.328125 23.296875 7.011719 21.945312 4.386719 C 21.914062 4.332031 21.898438 4.269531 21.890625 4.210938 L 21.71875 2.363281 C 21.6875 2 21.378906 1.726562 21 1.726562 L 9.402344 1.726562 C 9.027344 1.726562 8.71875 2 8.683594 2.363281 L 8.515625 4.207031 C 8.507812 4.269531 8.488281 4.332031 8.460938 4.386719 C 7.109375 7.011719 4.816406 13.328125 2.433594 23.179688 C 2.402344 23.316406 2.429688 23.457031 2.507812 23.574219 C 2.585938 23.6875 2.710938 23.765625 2.851562 23.789062 L 6.132812 24.320312 L 6.066406 24.632812 C 6.039062 24.769531 6.066406 24.910156 6.144531 25.023438 C 6.226562 25.136719 6.351562 25.210938 6.492188 25.234375 L 10.578125 25.847656 L 10.53125 26.230469 C 10.511719 26.363281 10.554688 26.503906 10.640625 26.609375 C 10.730469 26.714844 10.859375 26.78125 11 26.792969 C 12.394531 26.90625 13.796875 26.960938 15.203125 26.960938 C 16.605469 26.960938 18.011719 26.90625 19.402344 26.792969 C 19.542969 26.78125 19.675781 26.714844 19.761719 26.609375 C 19.851562 26.503906 19.890625 26.363281 19.875 26.234375 L 19.828125 25.847656 L 23.914062 25.234375 C 24.054688 25.210938 24.179688 25.136719 24.257812 25.023438 C 24.339844 24.910156 24.367188 24.769531 24.335938 24.636719 L 24.269531 24.320312 L 27.554688 23.789062 C 27.691406 23.765625 27.816406 23.6875 27.894531 23.574219 C 27.976562 23.457031 28.003906 23.316406 27.96875 23.179688 "/>
</g>
</g>
</svg>
