<?xml version="1.0" encoding="UTF-8"?>
<svg xmlns="http://www.w3.org/2000/svg" xmlns:xlink="http://www.w3.org/1999/xlink" width="30pt" height="30.000001pt" viewBox="0 0 30 30.000001" version="1.2">
<defs>
<clipPath id="clip1">
  <path d="M 0.484375 0 L 29.515625 0 L 29.515625 29.03125 L 0.484375 29.03125 Z M 0.484375 0 "/>
</clipPath>
<clipPath id="clip2">
  <path d="M 3.386719 2.144531 L 28.066406 2.144531 L 28.066406 26.765625 L 3.386719 26.765625 Z M 3.386719 2.144531 "/>
</clipPath>
</defs>
<g id="surface1">
<g clip-path="url(#clip1)" clip-rule="nonzero">
<path style=" stroke:none;fill-rule:nonzero;fill:rgb(100%,100%,100%);fill-opacity:1;" d="M 0.484375 0 L 29.515625 0 L 29.515625 29.03125 L 0.484375 29.03125 Z M 0.484375 0 "/>
<path style=" stroke:none;fill-rule:nonzero;fill:rgb(100%,100%,100%);fill-opacity:1;" d="M 0.484375 0 L 29.515625 0 L 29.515625 29.03125 L 0.484375 29.03125 Z M 0.484375 0 "/>
</g>
<path style=" stroke:none;fill-rule:nonzero;fill:rgb(0%,0%,0%);fill-opacity:1;" d="M 13.515625 6.800781 C 13.515625 6.570312 13.359375 6.417969 13.121094 6.417969 L 7.605469 6.417969 C 7.367188 6.417969 7.210938 6.570312 7.210938 6.800781 L 7.210938 10.742188 C 7.210938 11.777344 7.878906 12.695312 8.984375 13.152344 C 9.417969 13.34375 9.890625 13.421875 10.363281 13.421875 C 10.835938 13.421875 11.308594 13.34375 11.742188 13.152344 C 12.847656 12.695312 13.515625 11.777344 13.515625 10.742188 Z M 12.726562 10.742188 C 12.726562 11.46875 12.214844 12.121094 11.425781 12.425781 C 10.757812 12.695312 9.96875 12.695312 9.257812 12.425781 C 8.472656 12.082031 7.957031 11.433594 7.957031 10.742188 L 7.957031 8.714844 L 11.113281 8.714844 C 11.347656 8.714844 11.507812 8.5625 11.507812 8.332031 C 11.507812 8.101562 11.347656 7.949219 11.113281 7.949219 L 7.957031 7.949219 L 7.957031 7.183594 L 12.6875 7.183594 L 12.6875 10.742188 Z M 12.726562 10.742188 "/>
<path style=" stroke:none;fill-rule:nonzero;fill:rgb(0%,0%,0%);fill-opacity:1;" d="M 11.941406 24.019531 L 9.851562 24.019531 L 8.785156 20.460938 C 8.707031 20.269531 8.511719 20.15625 8.3125 20.195312 C 8.117188 20.269531 8 20.460938 8.039062 20.652344 L 9.21875 24.480469 C 9.257812 24.632812 9.417969 24.746094 9.613281 24.746094 L 11.980469 24.746094 C 12.214844 24.746094 12.375 24.59375 12.375 24.363281 C 12.375 24.136719 12.175781 24.019531 11.941406 24.019531 Z M 11.941406 24.019531 "/>
<path style=" stroke:none;fill-rule:nonzero;fill:rgb(0%,0%,0%);fill-opacity:1;" d="M 13.910156 24.019531 L 13.515625 24.019531 C 13.28125 24.019531 13.121094 24.175781 13.121094 24.402344 C 13.121094 24.632812 13.28125 24.785156 13.515625 24.785156 L 13.910156 24.785156 C 14.148438 24.785156 14.304688 24.632812 14.304688 24.402344 C 14.304688 24.175781 14.148438 24.019531 13.910156 24.019531 Z M 13.910156 24.019531 "/>
<g clip-path="url(#clip2)" clip-rule="nonzero">
<path style=" stroke:none;fill-rule:nonzero;fill:rgb(0%,0%,0%);fill-opacity:1;" d="M 28.058594 15.71875 L 24.828125 11.625 C 24.511719 11.203125 23.882812 11.125 23.449219 11.433594 L 18.324219 15.183594 C 18.167969 15.296875 18.128906 15.527344 18.207031 15.679688 C 18.324219 15.871094 18.601562 15.945312 18.796875 15.792969 L 22.9375 12.769531 L 25.0625 15.488281 C 25.144531 15.601562 25.261719 15.640625 25.378906 15.640625 C 25.457031 15.640625 25.535156 15.601562 25.617188 15.5625 C 25.773438 15.449219 25.8125 15.183594 25.695312 15.027344 L 23.566406 12.351562 L 23.921875 12.082031 C 24 12.003906 24.117188 12.042969 24.195312 12.121094 L 27.429688 16.214844 C 27.507812 16.292969 27.46875 16.40625 27.390625 16.484375 L 27.074219 16.789062 L 26.679688 16.292969 C 26.5625 16.136719 26.285156 16.101562 26.128906 16.214844 C 25.96875 16.328125 25.929688 16.597656 26.050781 16.75 L 26.484375 17.285156 L 17.0625 25.476562 L 17.0625 2.976562 C 17.0625 2.746094 16.90625 2.59375 16.667969 2.59375 L 14.699219 2.59375 C 14.699219 2.363281 14.539062 2.210938 14.304688 2.210938 L 13.121094 2.210938 C 12.886719 2.210938 12.726562 2.363281 12.726562 2.59375 L 11.152344 2.59375 C 11.152344 2.363281 10.992188 2.210938 10.757812 2.210938 L 9.574219 2.210938 C 9.339844 2.210938 9.179688 2.363281 9.179688 2.59375 L 7.210938 2.59375 C 6.972656 2.59375 6.816406 2.746094 6.816406 2.976562 L 6.816406 4.390625 L 3.976562 8.984375 C 3.503906 9.75 3.386719 10.667969 3.625 11.546875 L 8 26.429688 C 8.039062 26.585938 8.195312 26.699219 8.390625 26.699219 L 16.667969 26.699219 C 16.707031 26.699219 16.789062 26.699219 16.828125 26.660156 C 16.867188 26.660156 16.867188 26.621094 16.867188 26.621094 C 16.90625 26.621094 16.90625 26.585938 16.945312 26.585938 L 27.980469 16.980469 C 28.335938 16.675781 28.375 16.101562 28.058594 15.71875 Z M 13.515625 2.976562 L 13.910156 2.976562 L 13.910156 4.507812 L 13.515625 4.507812 Z M 11.152344 3.359375 L 12.726562 3.359375 L 12.726562 4.125 L 11.152344 4.125 Z M 9.96875 2.976562 L 10.363281 2.976562 L 10.363281 4.507812 L 9.96875 4.507812 Z M 7.605469 3.359375 L 9.179688 3.359375 L 9.179688 4.125 L 7.605469 4.125 Z M 16.273438 25.933594 L 8.707031 25.933594 L 4.410156 11.316406 C 4.214844 10.667969 4.332031 9.941406 4.6875 9.367188 L 7.445312 4.886719 L 9.179688 4.886719 C 9.179688 5.117188 9.339844 5.269531 9.574219 5.269531 L 10.757812 5.269531 C 10.992188 5.269531 11.152344 5.117188 11.152344 4.886719 L 12.726562 4.886719 C 12.726562 5.117188 12.886719 5.269531 13.121094 5.269531 L 14.304688 5.269531 C 14.539062 5.269531 14.699219 5.117188 14.699219 4.886719 L 16.273438 4.886719 Z M 16.273438 4.125 L 14.699219 4.125 L 14.699219 3.359375 L 16.273438 3.359375 Z M 16.273438 4.125 "/>
</g>
</g>
</svg>
