<?xml version="1.0" encoding="UTF-8"?>
<svg xmlns="http://www.w3.org/2000/svg" xmlns:xlink="http://www.w3.org/1999/xlink" width="30pt" height="30.000001pt" viewBox="0 0 30 30.000001" version="1.2">
<defs>
<clipPath id="clip1">
  <path d="M 0.484375 0 L 29.515625 0 L 29.515625 29.03125 L 0.484375 29.03125 Z M 0.484375 0 "/>
</clipPath>
<clipPath id="clip2">
  <path d="M 4.402344 3.03125 L 25.316406 3.03125 L 25.316406 27.582031 L 4.402344 27.582031 Z M 4.402344 3.03125 "/>
</clipPath>
</defs>
<g id="surface1">
<g clip-path="url(#clip1)" clip-rule="nonzero">
<path style=" stroke:none;fill-rule:nonzero;fill:rgb(100%,100%,100%);fill-opacity:1;" d="M 0.484375 0 L 29.515625 0 L 29.515625 36.289062 L 0.484375 36.289062 Z M 0.484375 0 "/>
<path style=" stroke:none;fill-rule:nonzero;fill:rgb(100%,100%,100%);fill-opacity:1;" d="M 0.484375 0 L 29.515625 0 L 29.515625 29.03125 L 0.484375 29.03125 Z M 0.484375 0 "/>
<path style=" stroke:none;fill-rule:nonzero;fill:rgb(100%,100%,100%);fill-opacity:1;" d="M 0.484375 0 L 29.515625 0 L 29.515625 29.03125 L 0.484375 29.03125 Z M 0.484375 0 "/>
</g>
<g clip-path="url(#clip2)" clip-rule="nonzero">
<path style=" stroke:none;fill-rule:nonzero;fill:rgb(6.269836%,5.879211%,5.099487%);fill-opacity:1;" d="M 22.015625 25.304688 L 24.835938 25.304688 C 24.792969 25.929688 24.742188 26.558594 24.675781 27.179688 C 24.671875 27.203125 24.652344 27.21875 24.632812 27.21875 L 22.296875 27.21875 C 22.277344 27.21875 22.257812 27.203125 22.253906 27.179688 C 22.21875 26.546875 22.140625 25.921875 22.015625 25.304688 Z M 4.878906 25.304688 L 7.699219 25.304688 C 7.574219 25.921875 7.496094 26.546875 7.457031 27.179688 C 7.457031 27.203125 7.4375 27.21875 7.414062 27.21875 L 5.078125 27.21875 C 5.058594 27.21875 5.042969 27.203125 5.039062 27.179688 C 4.976562 26.558594 4.921875 25.929688 4.878906 25.304688 Z M 9.449219 24.011719 L 20.265625 24.011719 C 20.242188 24.113281 20.222656 24.214844 20.199219 24.320312 L 19.941406 25.867188 C 19.941406 25.886719 19.921875 25.898438 19.902344 25.898438 L 9.8125 25.898438 C 9.792969 25.898438 9.777344 25.886719 9.773438 25.867188 L 9.515625 24.320312 C 9.496094 24.214844 9.472656 24.113281 9.453125 24.011719 Z M 22.34375 6.042969 C 24.375 12.109375 25.226562 18.523438 24.859375 24.921875 L 21.929688 24.921875 C 21.710938 23.988281 21.390625 23.082031 20.972656 22.222656 C 21.6875 17.71875 21.59375 13.121094 20.703125 8.648438 C 20.507812 7.476562 21.21875 6.347656 22.34375 6.042969 Z M 7.375 6.042969 C 8.496094 6.347656 9.203125 7.476562 9.011719 8.648438 C 8.121094 13.121094 8.03125 17.71875 8.746094 22.222656 C 8.324219 23.082031 8.003906 23.988281 7.785156 24.921875 L 4.859375 24.921875 C 4.488281 18.523438 5.339844 12.109375 7.375 6.042969 Z M 11.875 3.546875 C 13.796875 4.296875 15.917969 4.296875 17.839844 3.546875 C 17.109375 5.234375 15.179688 5.996094 13.535156 5.246094 C 12.792969 4.910156 12.203125 4.304688 11.875 3.546875 Z M 11.445312 3.453125 C 12.125 5.386719 14.207031 6.390625 16.09375 5.695312 C 17.113281 5.320312 17.917969 4.496094 18.28125 3.453125 C 19.667969 3.980469 20.953125 4.75 22.085938 5.730469 C 20.863281 6.152344 20.125 7.417969 20.347656 8.71875 C 21.324219 13.640625 21.324219 18.710938 20.347656 23.628906 L 9.375 23.628906 C 8.394531 18.710938 8.394531 13.640625 9.375 8.71875 C 9.59375 7.417969 8.855469 6.152344 7.636719 5.730469 L 7.644531 5.730469 C 8.773438 4.75 10.058594 3.980469 11.445312 3.453125 Z M 11.550781 3.03125 C 11.5 3.03125 11.453125 3.042969 11.40625 3.058594 C 9.847656 3.640625 8.414062 4.515625 7.171875 5.640625 C 7.121094 5.6875 7.078125 5.75 7.058594 5.816406 C 4.738281 12.6875 3.925781 19.996094 4.671875 27.222656 C 4.691406 27.4375 4.871094 27.597656 5.082031 27.597656 L 7.417969 27.597656 C 7.636719 27.597656 7.816406 27.425781 7.832031 27.199219 C 7.914062 25.707031 8.261719 24.242188 8.855469 22.878906 C 8.941406 23.382812 9.042969 23.890625 9.152344 24.394531 L 9.40625 25.929688 C 9.441406 26.132812 9.613281 26.28125 9.816406 26.28125 L 19.902344 26.28125 C 20.101562 26.28125 20.277344 26.132812 20.308594 25.929688 L 20.566406 24.394531 C 20.671875 23.890625 20.773438 23.382812 20.863281 22.878906 C 21.457031 24.242188 21.804688 25.707031 21.886719 27.199219 C 21.898438 27.425781 22.078125 27.597656 22.300781 27.597656 L 24.636719 27.597656 C 24.847656 27.597656 25.023438 27.4375 25.046875 27.222656 C 25.792969 19.996094 24.976562 12.6875 22.660156 5.816406 C 22.636719 5.75 22.597656 5.6875 22.542969 5.640625 C 21.304688 4.515625 19.867188 3.640625 18.308594 3.058594 C 18.210938 3.023438 18.105469 3.023438 18.007812 3.066406 C 15.996094 3.949219 13.722656 3.949219 11.710938 3.066406 C 11.660156 3.042969 11.605469 3.03125 11.550781 3.03125 "/>
</g>
</g>
</svg>
