<?xml version="1.0" encoding="UTF-8"?>
<svg xmlns="http://www.w3.org/2000/svg" xmlns:xlink="http://www.w3.org/1999/xlink" width="30pt" height="30.000001pt" viewBox="0 0 30 30.000001" version="1.2">
<defs>
<clipPath id="clip1">
  <path d="M 1.050781 2.902344 L 28.328125 2.902344 L 28.328125 26.652344 L 1.050781 26.652344 Z M 1.050781 2.902344 "/>
</clipPath>
</defs>
<g id="surface1">
<g clip-path="url(#clip1)" clip-rule="nonzero">
<path style=" stroke:none;fill-rule:nonzero;fill:rgb(6.269836%,5.879211%,5.099487%);fill-opacity:1;" d="M 7.558594 3.828125 L 10.152344 3.828125 C 10.378906 6.132812 12.316406 7.933594 14.667969 7.933594 C 17.015625 7.933594 18.953125 6.132812 19.183594 3.828125 L 21.773438 3.828125 L 27.191406 8.015625 L 24.566406 11.410156 L 22.195312 9.664062 C 22.058594 9.5625 21.878906 9.546875 21.722656 9.625 C 21.570312 9.703125 21.476562 9.859375 21.476562 10.03125 L 21.476562 25.726562 L 7.859375 25.726562 L 7.859375 10.03125 C 7.859375 9.859375 7.761719 9.703125 7.609375 9.625 C 7.457031 9.546875 7.277344 9.5625 7.136719 9.664062 L 4.769531 11.410156 L 2.144531 8.015625 Z M 18.242188 3.996094 C 17.945312 5.710938 16.457031 7.023438 14.667969 7.023438 C 12.875 7.023438 11.390625 5.710938 11.09375 3.996094 C 12.257812 4.320312 13.460938 4.488281 14.667969 4.488281 C 15.871094 4.488281 17.078125 4.320312 18.242188 3.996094 Z M 1.054688 7.875 C 1.039062 7.996094 1.070312 8.121094 1.148438 8.214844 L 4.324219 12.320312 C 4.472656 12.515625 4.753906 12.554688 4.949219 12.40625 L 6.953125 10.933594 L 6.953125 26.183594 C 6.953125 26.433594 7.15625 26.640625 7.40625 26.640625 L 21.929688 26.640625 C 22.179688 26.640625 22.382812 26.433594 22.382812 26.183594 L 22.382812 10.933594 L 24.382812 12.40625 C 24.582031 12.554688 24.859375 12.515625 25.011719 12.320312 L 28.1875 8.214844 C 28.261719 8.121094 28.296875 7.996094 28.28125 7.875 C 28.265625 7.757812 28.203125 7.648438 28.105469 7.574219 L 22.207031 3.011719 C 22.125 2.949219 22.027344 2.917969 21.929688 2.917969 L 18.753906 2.917969 C 18.703125 2.917969 18.65625 2.929688 18.609375 2.945312 L 18.609375 2.941406 C 16.066406 3.792969 13.265625 3.792969 10.726562 2.941406 L 10.722656 2.945312 C 10.679688 2.929688 10.632812 2.917969 10.582031 2.917969 L 7.40625 2.917969 C 7.304688 2.917969 7.207031 2.949219 7.128906 3.011719 L 1.226562 7.574219 C 1.132812 7.648438 1.070312 7.757812 1.054688 7.875 "/>
</g>
<path style=" stroke:none;fill-rule:nonzero;fill:rgb(6.269836%,5.879211%,5.099487%);fill-opacity:1;" d="M 16.027344 5.199219 L 13.304688 5.199219 L 13.304688 6.109375 L 16.027344 6.109375 L 16.027344 5.199219 "/>
</g>
</svg>
