<?xml version="1.0" encoding="UTF-8"?>
<svg xmlns="http://www.w3.org/2000/svg" xmlns:xlink="http://www.w3.org/1999/xlink" width="30pt" height="30.000001pt" viewBox="0 0 30 30.000001" version="1.2">
<defs>
<clipPath id="clip1">
  <path d="M 1.140625 3.398438 L 28.71875 3.398438 L 28.71875 25.898438 L 1.140625 25.898438 Z M 1.140625 3.398438 "/>
</clipPath>
</defs>
<g id="surface1">
<g clip-path="url(#clip1)" clip-rule="nonzero">
<path style=" stroke:none;fill-rule:nonzero;fill:rgb(6.269836%,5.879211%,5.099487%);fill-opacity:1;" d="M 10.816406 3.453125 C 10.761719 3.453125 10.710938 3.460938 10.664062 3.476562 L 7.039062 4.570312 C 6.972656 4.589844 6.914062 4.621094 6.863281 4.660156 C 5.851562 4.980469 5.019531 5.640625 4.527344 6.453125 C 4.519531 6.464844 4.511719 6.476562 4.503906 6.492188 L 2.882812 9.722656 L 1.277344 11.707031 C 1.132812 11.886719 1.109375 12.082031 1.210938 12.289062 C 1.378906 12.632812 1.574219 13.011719 1.960938 13.289062 C 2.347656 13.566406 2.894531 13.65625 3.5 13.519531 C 3.609375 13.496094 3.582031 13.503906 3.617188 13.527344 C 3.65625 13.554688 3.75 13.664062 3.898438 13.832031 C 4.046875 14 4.273438 14.21875 4.601562 14.34375 C 4.933594 14.46875 5.339844 14.488281 5.8125 14.386719 L 5.796875 14.386719 C 6.039062 14.34375 6.125 14.371094 6.191406 14.402344 C 6.253906 14.429688 6.328125 14.492188 6.457031 14.617188 C 6.582031 14.742188 6.773438 14.929688 7.074219 15.039062 C 7.332031 15.132812 7.640625 15.136719 7.976562 15.066406 C 8.171875 15.734375 8.296875 16.429688 8.296875 17.136719 C 8.296875 19.027344 7.398438 20.828125 6.71875 22.285156 C 6.703125 22.316406 6.691406 22.351562 6.683594 22.386719 C 6.667969 22.449219 6.664062 22.480469 6.664062 22.480469 C 6.632812 22.601562 6.644531 22.714844 6.691406 22.832031 C 6.742188 22.945312 6.820312 23.03125 6.929688 23.089844 C 12.035156 25.910156 17.769531 25.910156 22.871094 23.089844 C 23.0625 22.988281 23.15625 22.828125 23.15625 22.613281 L 23.15625 22.554688 C 23.15625 22.476562 23.136719 22.398438 23.101562 22.324219 C 22.414062 20.863281 21.503906 19.046875 21.503906 17.136719 C 21.503906 16.429688 21.628906 15.734375 21.820312 15.066406 C 22.160156 15.140625 22.46875 15.132812 22.730469 15.039062 C 23.027344 14.929688 23.21875 14.742188 23.347656 14.617188 C 23.476562 14.492188 23.546875 14.429688 23.613281 14.402344 C 23.679688 14.371094 23.765625 14.34375 24.007812 14.386719 L 23.992188 14.386719 C 24.464844 14.488281 24.871094 14.46875 25.199219 14.34375 C 25.53125 14.21875 25.757812 14 25.90625 13.832031 C 26.054688 13.664062 26.148438 13.554688 26.1875 13.527344 C 26.222656 13.503906 26.195312 13.496094 26.304688 13.519531 C 26.90625 13.65625 27.457031 13.566406 27.84375 13.289062 C 28.226562 13.011719 28.425781 12.632812 28.589844 12.289062 C 28.691406 12.082031 28.671875 11.886719 28.523438 11.707031 L 26.921875 9.722656 L 25.296875 6.492188 C 25.292969 6.476562 25.285156 6.464844 25.277344 6.453125 C 24.757812 5.597656 23.886719 4.875 22.804688 4.582031 C 22.792969 4.578125 22.777344 4.574219 22.765625 4.570312 L 19.140625 3.476562 C 19.003906 3.433594 18.871094 3.445312 18.742188 3.503906 C 18.613281 3.566406 18.523438 3.664062 18.472656 3.792969 C 17.898438 5.195312 16.523438 6.1875 14.902344 6.1875 C 13.28125 6.1875 11.902344 5.195312 11.332031 3.792969 C 11.238281 3.5625 11.066406 3.449219 10.816406 3.453125 Z M 10.574219 4.644531 C 11.40625 6.199219 13.011719 7.285156 14.902344 7.285156 C 16.789062 7.285156 18.394531 6.199219 19.230469 4.644531 L 22.054688 5.5 L 22.054688 11.605469 C 21.378906 13.027344 20.402344 14.941406 20.402344 17.136719 C 20.402344 19.171875 21.238281 20.925781 21.898438 22.3125 C 17.359375 24.65625 12.445312 24.65625 7.90625 22.3125 C 8.558594 20.929688 9.398438 19.171875 9.398438 17.136719 C 9.398438 14.941406 8.414062 13.019531 7.75 11.601562 L 7.75 5.5 Z M 23.15625 5.902344 C 23.648438 6.175781 24.0625 6.574219 24.332031 7.015625 L 25.703125 9.746094 L 23.15625 10.832031 Z M 6.648438 5.960938 L 6.648438 10.832031 L 4.101562 9.746094 L 5.472656 7.015625 C 5.734375 6.582031 6.164062 6.234375 6.648438 5.960938 Z M 3.515625 10.6875 L 6.753906 12.070312 C 7.035156 12.667969 7.34375 13.328125 7.613281 14.019531 C 7.535156 14.027344 7.480469 14.019531 7.449219 14.011719 C 7.402344 13.992188 7.34375 13.949219 7.222656 13.832031 C 7.105469 13.714844 6.925781 13.53125 6.644531 13.402344 C 6.363281 13.273438 5.996094 13.238281 5.589844 13.3125 C 5.585938 13.3125 5.582031 13.316406 5.574219 13.316406 C 5.25 13.386719 5.089844 13.359375 4.996094 13.320312 C 4.898438 13.285156 4.828125 13.226562 4.722656 13.109375 C 4.617188 12.988281 4.496094 12.804688 4.253906 12.636719 C 4.015625 12.464844 3.628906 12.371094 3.261719 12.449219 C 3.257812 12.449219 3.253906 12.453125 3.253906 12.453125 C 2.855469 12.542969 2.726562 12.488281 2.605469 12.402344 C 2.539062 12.355469 2.460938 12.195312 2.386719 12.082031 Z M 26.289062 10.6875 L 27.414062 12.082031 C 27.34375 12.195312 27.261719 12.355469 27.199219 12.402344 C 27.078125 12.488281 26.949219 12.542969 26.550781 12.453125 C 26.546875 12.453125 26.542969 12.449219 26.542969 12.449219 C 26.171875 12.371094 25.789062 12.464844 25.546875 12.636719 C 25.308594 12.804688 25.1875 12.988281 25.082031 13.109375 C 24.972656 13.226562 24.90625 13.285156 24.808594 13.320312 C 24.710938 13.359375 24.554688 13.386719 24.226562 13.316406 C 24.222656 13.316406 24.21875 13.3125 24.210938 13.3125 C 23.804688 13.238281 23.441406 13.273438 23.160156 13.402344 C 22.875 13.53125 22.699219 13.714844 22.578125 13.832031 C 22.460938 13.949219 22.402344 13.992188 22.351562 14.011719 C 22.324219 14.019531 22.265625 14.027344 22.183594 14.019531 C 22.453125 13.324219 22.761719 12.671875 23.046875 12.070312 Z M 26.289062 10.6875 "/>
</g>
</g>
</svg>
