<?xml version="1.0" encoding="UTF-8"?>
<svg xmlns="http://www.w3.org/2000/svg" xmlns:xlink="http://www.w3.org/1999/xlink" width="30pt" height="30.000001pt" viewBox="0 0 30 30.000001" version="1.2">
<defs>
<clipPath id="clip1">
  <path d="M 7.292969 0.933594 L 22.367188 0.933594 L 22.367188 27.488281 L 7.292969 27.488281 Z M 7.292969 0.933594 "/>
</clipPath>
</defs>
<g id="surface1">
<g clip-path="url(#clip1)" clip-rule="nonzero">
<path style=" stroke:none;fill-rule:nonzero;fill:rgb(6.269836%,5.879211%,5.099487%);fill-opacity:1;" d="M 19.253906 16.425781 C 19.253906 17.21875 19.625 18.53125 20.097656 20.1875 C 20.664062 22.191406 21.359375 24.648438 21.457031 26.601562 L 8.195312 26.601562 C 8.292969 24.648438 8.992188 22.191406 9.558594 20.1875 C 10.027344 18.53125 10.398438 17.21875 10.398438 16.425781 C 10.398438 15.429688 9.800781 13.976562 9.226562 12.566406 C 8.71875 11.332031 8.191406 10.054688 8.1875 9.339844 C 8.179688 8.878906 8.714844 7.007812 9.050781 5.9375 C 9.0625 5.894531 9.070312 5.847656 9.070312 5.804688 L 9.070312 1.820312 L 9.957031 1.820312 L 9.957031 4.03125 C 9.957031 6.71875 12.140625 8.902344 14.828125 8.902344 C 17.511719 8.902344 19.695312 6.71875 19.695312 4.03125 L 19.695312 1.820312 L 20.582031 1.820312 L 20.582031 5.804688 C 20.582031 5.847656 20.589844 5.894531 20.601562 5.9375 C 20.941406 7.007812 21.472656 8.878906 21.46875 9.339844 C 21.460938 10.054688 20.9375 11.332031 20.429688 12.566406 C 19.851562 13.976562 19.253906 15.429688 19.253906 16.425781 Z M 22.355469 9.347656 C 22.359375 8.644531 21.65625 6.34375 21.46875 5.734375 L 21.46875 1.378906 C 21.46875 1.132812 21.269531 0.933594 21.027344 0.933594 L 19.253906 0.933594 C 19.011719 0.933594 18.8125 1.132812 18.8125 1.378906 L 18.8125 4.03125 C 18.8125 6.230469 17.023438 8.015625 14.828125 8.015625 C 12.628906 8.015625 10.84375 6.230469 10.84375 4.03125 L 10.84375 1.378906 C 10.84375 1.132812 10.644531 0.933594 10.398438 0.933594 L 8.628906 0.933594 C 8.382812 0.933594 8.1875 1.132812 8.1875 1.378906 L 8.1875 5.734375 C 7.996094 6.34375 7.292969 8.644531 7.300781 9.347656 C 7.308594 10.234375 7.84375 11.53125 8.40625 12.902344 C 8.949219 14.230469 9.515625 15.605469 9.515625 16.425781 C 9.515625 17.097656 9.140625 18.417969 8.707031 19.949219 C 8.078125 22.160156 7.300781 24.910156 7.300781 27.042969 C 7.300781 27.289062 7.5 27.488281 7.742188 27.488281 L 21.910156 27.488281 C 22.15625 27.488281 22.355469 27.289062 22.355469 27.042969 C 22.355469 24.910156 21.574219 22.160156 20.949219 19.949219 C 20.515625 18.417969 20.140625 17.097656 20.140625 16.425781 C 20.140625 15.605469 20.703125 14.230469 21.25 12.902344 C 21.8125 11.53125 22.34375 10.234375 22.355469 9.347656 "/>
</g>
</g>
</svg>
