<?xml version="1.0" encoding="UTF-8"?>
<svg xmlns="http://www.w3.org/2000/svg" xmlns:xlink="http://www.w3.org/1999/xlink" width="30pt" height="30.000001pt" viewBox="0 0 30 30.000001" version="1.2">
<defs>
<clipPath id="clip1">
  <path d="M 2.871094 5.421875 L 26.535156 5.421875 L 26.535156 23.519531 L 2.871094 23.519531 Z M 2.871094 5.421875 "/>
</clipPath>
</defs>
<g id="surface1">
<g clip-path="url(#clip1)" clip-rule="nonzero">
<path style=" stroke:none;fill-rule:nonzero;fill:rgb(0%,0%,0%);fill-opacity:1;" d="M 25.054688 5.421875 L 4.351562 5.421875 C 4.15625 5.421875 3.96875 5.460938 3.785156 5.539062 C 3.605469 5.613281 3.445312 5.722656 3.304688 5.867188 C 3.167969 6.007812 3.0625 6.167969 2.984375 6.355469 C 2.910156 6.539062 2.871094 6.730469 2.871094 6.929688 L 2.871094 15.980469 C 2.871094 15.988281 2.878906 16 2.878906 16.011719 C 2.882812 16.054688 2.890625 16.097656 2.90625 16.140625 C 2.910156 16.160156 2.914062 16.175781 2.921875 16.191406 C 2.945312 16.242188 2.976562 16.289062 3.015625 16.332031 L 9.917969 23.367188 C 10.011719 23.464844 10.128906 23.515625 10.265625 23.519531 L 19.140625 23.519531 C 19.277344 23.515625 19.390625 23.46875 19.488281 23.371094 L 26.390625 16.332031 C 26.429688 16.292969 26.460938 16.242188 26.484375 16.191406 C 26.488281 16.175781 26.496094 16.160156 26.5 16.144531 C 26.515625 16.101562 26.523438 16.054688 26.527344 16.011719 C 26.527344 16 26.53125 15.992188 26.53125 15.980469 L 26.53125 6.929688 C 26.53125 6.730469 26.496094 6.539062 26.417969 6.355469 C 26.34375 6.171875 26.238281 6.007812 26.097656 5.867188 C 25.960938 5.722656 25.800781 5.617188 25.621094 5.539062 C 25.4375 5.460938 25.25 5.421875 25.054688 5.421875 Z M 20.394531 16.410156 L 16.980469 9.445312 L 25.546875 9.445312 L 25.546875 15.476562 L 23.082031 15.476562 C 22.082031 15.476562 21.1875 15.789062 20.394531 16.410156 Z M 3.859375 6.929688 C 3.859375 6.792969 3.90625 6.675781 4.003906 6.574219 C 4.097656 6.476562 4.214844 6.429688 4.351562 6.429688 L 25.054688 6.429688 C 25.191406 6.429688 25.308594 6.476562 25.402344 6.574219 C 25.5 6.675781 25.546875 6.792969 25.546875 6.929688 L 25.546875 8.4375 L 3.859375 8.4375 Z M 9.011719 16.410156 C 8.21875 15.789062 7.324219 15.476562 6.324219 15.476562 L 3.859375 15.476562 L 3.859375 9.445312 L 12.425781 9.445312 Z M 6.324219 16.480469 C 6.78125 16.480469 7.222656 16.570312 7.644531 16.75 C 8.066406 16.929688 8.4375 17.183594 8.761719 17.511719 C 9.085938 17.84375 9.335938 18.222656 9.511719 18.652344 C 9.683594 19.085938 9.773438 19.535156 9.773438 20 L 9.773438 21.800781 L 4.554688 16.480469 Z M 18.648438 20 L 18.648438 22.511719 L 10.757812 22.511719 L 10.757812 20 C 10.761719 18.921875 10.425781 17.96875 9.757812 17.140625 L 13.527344 9.445312 L 15.878906 9.445312 L 19.648438 17.140625 C 18.980469 17.96875 18.644531 18.921875 18.648438 20 Z M 19.632812 21.800781 L 19.632812 20 C 19.632812 19.535156 19.722656 19.085938 19.894531 18.652344 C 20.070312 18.222656 20.320312 17.84375 20.644531 17.511719 C 20.96875 17.183594 21.339844 16.929688 21.761719 16.75 C 22.183594 16.570312 22.625 16.480469 23.082031 16.480469 L 24.851562 16.480469 Z M 19.632812 21.800781 "/>
</g>
</g>
</svg>
