<?xml version="1.0" encoding="UTF-8"?>
<svg xmlns="http://www.w3.org/2000/svg" xmlns:xlink="http://www.w3.org/1999/xlink" width="30pt" height="30.000001pt" viewBox="0 0 30 30.000001" version="1.2">
<defs>
<clipPath id="clip1">
  <path d="M 0.484375 0 L 29.515625 0 L 29.515625 29.03125 L 0.484375 29.03125 Z M 0.484375 0 "/>
</clipPath>
<clipPath id="clip2">
  <path d="M 6.289062 2.113281 L 23.707031 2.113281 L 23.707031 26.667969 L 6.289062 26.667969 Z M 6.289062 2.113281 "/>
</clipPath>
</defs>
<g id="surface1">
<g clip-path="url(#clip1)" clip-rule="nonzero">
<path style=" stroke:none;fill-rule:nonzero;fill:rgb(100%,100%,100%);fill-opacity:1;" d="M 0.484375 0 L 29.515625 0 L 29.515625 36.289062 L 0.484375 36.289062 Z M 0.484375 0 "/>
<path style=" stroke:none;fill-rule:nonzero;fill:rgb(100%,100%,100%);fill-opacity:1;" d="M 0.484375 0 L 29.515625 0 L 29.515625 29.03125 L 0.484375 29.03125 Z M 0.484375 0 "/>
<path style=" stroke:none;fill-rule:nonzero;fill:rgb(100%,100%,100%);fill-opacity:1;" d="M 0.484375 0 L 29.515625 0 L 29.515625 29.03125 L 0.484375 29.03125 Z M 0.484375 0 "/>
</g>
<g clip-path="url(#clip2)" clip-rule="nonzero">
<path style=" stroke:none;fill-rule:nonzero;fill:rgb(6.269836%,5.879211%,5.099487%);fill-opacity:1;" d="M 21.089844 20.121094 L 19.960938 14.757812 L 19.960938 13.195312 L 20.796875 7.667969 L 22.785156 20.121094 Z M 17.066406 25.652344 L 17.066406 15.210938 L 19.210938 15.210938 L 21.140625 24.386719 C 20.511719 24.667969 18.910156 25.324219 17.066406 25.652344 Z M 8.859375 24.386719 L 10.789062 15.210938 L 16.238281 15.210938 L 16.238281 25.773438 C 15.832031 25.820312 15.414062 25.847656 15 25.847656 C 12.382812 25.847656 9.71875 24.769531 8.859375 24.386719 Z M 7.214844 20.121094 L 9.203125 7.667969 L 10.039062 13.195312 L 10.039062 14.757812 L 8.910156 20.121094 Z M 11.949219 4.632812 L 11.316406 6.039062 C 11.257812 6.171875 11.269531 6.324219 11.355469 6.441406 L 14.75 11.203125 C 14.652344 11.277344 14.585938 11.394531 14.585938 11.527344 C 14.585938 11.753906 14.773438 11.9375 15 11.9375 C 15.082031 11.9375 15.160156 11.910156 15.226562 11.871094 L 15.855469 12.753906 L 10.808594 12.753906 L 9.675781 5.273438 Z M 15.035156 6.246094 L 13.921875 2.933594 L 16.089844 2.933594 Z M 15.476562 7.59375 L 15.488281 7.554688 L 16.71875 3.679688 L 17.828125 6.148438 L 15.804688 8.726562 Z M 12.167969 6.160156 L 13.292969 3.652344 L 14.605469 7.554688 L 15.585938 10.957031 Z M 13.761719 13.574219 L 14.585938 13.574219 L 14.585938 14.390625 L 13.761719 14.390625 Z M 10.867188 13.574219 L 12.933594 13.574219 L 12.933594 14.390625 L 10.867188 14.390625 Z M 15.414062 14.390625 L 15.414062 13.574219 L 19.132812 13.574219 L 19.132812 14.390625 Z M 20.324219 5.273438 L 19.191406 12.753906 L 16.964844 12.753906 L 16.085938 9.703125 L 18.632812 6.457031 C 18.726562 6.339844 18.746094 6.179688 18.683594 6.039062 L 18.050781 4.632812 Z M 23.675781 20.464844 L 21.195312 4.914062 C 21.171875 4.761719 21.058594 4.628906 20.902344 4.585938 L 17.613281 3.65625 L 17.03125 2.355469 C 16.964844 2.210938 16.816406 2.113281 16.652344 2.113281 L 13.347656 2.113281 C 13.183594 2.113281 13.035156 2.210938 12.96875 2.355469 L 12.386719 3.65625 L 9.097656 4.585938 C 8.941406 4.628906 8.828125 4.761719 8.804688 4.914062 L 6.324219 20.464844 C 6.304688 20.582031 6.339844 20.703125 6.417969 20.796875 C 6.496094 20.886719 6.613281 20.9375 6.734375 20.9375 L 8.738281 20.9375 L 7.980469 24.539062 C 7.941406 24.71875 8.035156 24.90625 8.203125 24.988281 C 8.339844 25.054688 11.632812 26.667969 15 26.667969 C 18.367188 26.667969 21.660156 25.054688 21.800781 24.988281 C 21.964844 24.90625 22.058594 24.71875 22.019531 24.539062 L 21.261719 20.9375 L 23.265625 20.9375 C 23.386719 20.9375 23.503906 20.886719 23.582031 20.796875 C 23.660156 20.703125 23.695312 20.582031 23.675781 20.464844 "/>
</g>
<path style=" stroke:none;fill-rule:nonzero;fill:rgb(6.269836%,5.879211%,5.099487%);fill-opacity:1;" d="M 15 16.847656 C 15.226562 16.847656 15.414062 16.664062 15.414062 16.4375 C 15.414062 16.210938 15.226562 16.027344 15 16.027344 C 14.773438 16.027344 14.585938 16.210938 14.585938 16.4375 C 14.585938 16.664062 14.773438 16.847656 15 16.847656 "/>
<path style=" stroke:none;fill-rule:nonzero;fill:rgb(6.269836%,5.879211%,5.099487%);fill-opacity:1;" d="M 15 18.484375 C 14.773438 18.484375 14.585938 18.667969 14.585938 18.890625 C 14.585938 19.117188 14.773438 19.300781 15 19.300781 C 15.226562 19.300781 15.414062 19.117188 15.414062 18.890625 C 15.414062 18.667969 15.226562 18.484375 15 18.484375 "/>
<path style=" stroke:none;fill-rule:nonzero;fill:rgb(6.269836%,5.879211%,5.099487%);fill-opacity:1;" d="M 15 20.9375 C 14.773438 20.9375 14.585938 21.121094 14.585938 21.347656 C 14.585938 21.574219 14.773438 21.757812 15 21.757812 C 15.226562 21.757812 15.414062 21.574219 15.414062 21.347656 C 15.414062 21.121094 15.226562 20.9375 15 20.9375 "/>
</g>
</svg>
