<svg xmlns="http://www.w3.org/2000/svg" viewBox="0 0 477.53 443.74"><g id="Lag_2" data-name="Lag 2"><path d="M446.89,133.11c-1.66-11.12-3.73-22.14-8.56-32.34A119.84,119.84,0,0,0,417,68.85c-15.94-17.45-39-26.12-62.19-26.68-11.5-.28-23.15,3-34.2,5.9-8.23,2.17-16.53,3.68-24.85,5.41-11.63,2.41-23.47,6.71-33.12,13.73-8.29,6-14.83,12.91-19.61,22.05l-.23.48a51.37,51.37,0,0,0-21.76-9.84c-2.09-.38-4.21-.62-6.34-.8A41.07,41.07,0,0,0,212.12,74,54.06,54.06,0,0,0,191.79,55c-11.72-6.3-24.77-7.93-37.9-7.87-19.72.08-40.32,1.05-59.78,4.37-14,2.39-28,6-39.4,15.1C44.17,75,35.87,84.05,29.31,96,19,114.86,15,138.64,18.39,159.82A179.09,179.09,0,0,0,29,199.5c2.15,5.33,4.51,10.57,6.92,15.79,2.14,4.61,4.5,11.27,7.15,14.94,3.82,5.3,8.93,10.65,14.89,13.41a50.6,50.6,0,0,0,5.73,2.2c.23.21.44.43.66.65,7.06,9.78,11.92,21,18.4,31.15,10.08,15.85,22.94,30.15,36.35,43.24,22.11,21.59,47.47,39.87,68.34,62.73a130.25,130.25,0,0,1,13.72,20.56c4.2,7.93,15.87,15.4,24.52,16.9l.55.08c.33,3.35,4.48,6.45,7.56,4.09,1.57-1.2,3.07-2.45,4.54-3.73a39.61,39.61,0,0,0,12.93-3.78A40.05,40.05,0,0,0,265.48,406a33.47,33.47,0,0,0,15.08-1.91c9.1-3.48,18.82-10,22.62-19.36l9.6-23.72c7.69-8.05,14-17.61,19.62-27.23q5.1-8.82,9.8-17.87c4.89-2.92,9.78-5.83,14.61-8.83q29.54-18.3,57.76-38.55c8.29-5.94,14.68-14.43,16.9-24.53a42.16,42.16,0,0,0-2.59-24.94,36.51,36.51,0,0,0,13.95-22.21C446.75,176.17,450,154.1,446.89,133.11Z" transform="translate(0 -16.9)" style="fill:#c02d2d"/></g><g id="Capa_1" data-name="Capa 1"><path d="M438.48,58.61a130.49,130.49,0,0,0-191.25,0L238.8,67.5l-8.43-8.91A130.59,130.59,0,0,0,45.83,51.81q-3.51,3.27-6.78,6.78a146.46,146.46,0,0,0,0,199.14L226.41,455.31a17.07,17.07,0,0,0,24.13.65l.65-.65L438.48,257.73A146.43,146.43,0,0,0,438.48,58.61ZM413.79,234.23h0l-175,184.54-175-184.54a111.91,111.91,0,0,1,0-152.15,96.45,96.45,0,0,1,136.3-5.49q2.85,2.64,5.49,5.49L226.41,104a17.56,17.56,0,0,0,24.78,0L272,82.09a96.45,96.45,0,0,1,136.3-5.48q2.85,2.63,5.49,5.48C453.91,125.08,454.21,191.52,413.79,234.23Z" transform="translate(0 -16.9)"/></g></svg>