<?xml version="1.0" encoding="UTF-8"?>
<svg xmlns="http://www.w3.org/2000/svg" xmlns:xlink="http://www.w3.org/1999/xlink" width="37.5pt" height="37.499999pt" viewBox="0 0 37.5 37.499999" version="1.2">
<defs>
<clipPath id="clip1">
  <path d="M 2.894531 4.042969 L 34.195312 4.042969 L 34.195312 33 L 2.894531 33 Z M 2.894531 4.042969 "/>
</clipPath>
</defs>
<g id="surface1">
<g clip-path="url(#clip1)" clip-rule="nonzero">
<path style=" stroke:none;fill-rule:nonzero;fill:rgb(0%,0%,0%);fill-opacity:1;" d="M 11.839844 4.476562 C 7.304688 4.476562 3.578125 7.898438 3.015625 12.285156 C 2.9375 12.644531 2.894531 13.019531 2.894531 13.441406 C 2.894531 18.558594 6.800781 23.183594 10.527344 26.613281 C 14.25 30.054688 17.96875 32.320312 17.96875 32.320312 L 18.546875 32.679688 L 19.121094 32.320312 C 19.121094 32.320312 22.84375 30.054688 26.574219 26.613281 C 30.292969 23.183594 34.195312 18.558594 34.195312 13.441406 C 34.195312 13.019531 34.152344 12.652344 34.082031 12.300781 C 33.515625 7.898438 29.796875 4.476562 25.253906 4.476562 C 22.476562 4.476562 20.179688 5.929688 18.546875 7.925781 C 16.914062 5.929688 14.617188 4.476562 11.839844 4.476562 Z M 11.839844 6.71875 C 14.300781 6.71875 16.414062 8.046875 17.585938 10.027344 L 18.546875 11.652344 L 19.507812 10.027344 C 20.675781 8.046875 22.789062 6.71875 25.253906 6.71875 C 28.6875 6.71875 31.464844 9.28125 31.875 12.617188 L 31.890625 12.703125 C 31.933594 12.914062 31.960938 13.152344 31.960938 13.441406 C 31.960938 17.359375 28.597656 21.703125 25.054688 24.96875 C 21.804688 27.96875 19.0625 29.640625 18.546875 29.964844 C 18.03125 29.640625 15.289062 27.96875 12.03125 24.96875 C 8.492188 21.703125 5.132812 17.359375 5.132812 13.441406 C 5.132812 13.140625 5.15625 12.90625 5.199219 12.703125 L 5.21875 12.652344 L 5.21875 12.597656 C 5.636719 9.28125 8.40625 6.71875 11.839844 6.71875 Z M 11.839844 6.71875 "/>
</g>
</g>
</svg>
