<svg id="Capa_1" data-name="Capa 1" xmlns="http://www.w3.org/2000/svg" viewBox="0 0 477.53 443.74"><path d="M438.48,58.61a130.49,130.49,0,0,0-191.25,0L238.8,67.5l-8.43-8.91A130.58,130.58,0,0,0,45.83,51.82q-3.51,3.26-6.78,6.77a146.46,146.46,0,0,0,0,199.14L226.41,455.31a17.07,17.07,0,0,0,24.13.65l.65-.65L393,305.72a67.89,67.89,0,0,1-6-5.66q-2.46-1.31-4.87-2.68c-5.32-3.06-12.22-7.09-16.4-12.45L238.8,418.77l-175-184.54a111.91,111.91,0,0,1,0-152.15,96.45,96.45,0,0,1,136.3-5.49c1.91,1.76,3.73,3.59,5.49,5.49L226.41,104a17.56,17.56,0,0,0,24.78,0L272,82.09a96.45,96.45,0,0,1,136.3-5.48q2.85,2.63,5.49,5.48c36.45,39.05,40,97.46,10.07,139.85a117.48,117.48,0,0,1,14.61,8.24,88.74,88.74,0,0,1,13.65,10.45A146.45,146.45,0,0,0,438.48,58.61Z" transform="translate(0 -16.9)"/><ellipse cx="379.45" cy="278.42" rx="17.77" ry="16.77"/><ellipse cx="438.05" cy="214.66" rx="17.27" ry="16.3"/></svg>