<svg id="Lag_1" data-name="Lag 1" xmlns="http://www.w3.org/2000/svg" viewBox="0 0 131.49 181.78"><path d="M56.4,32c-2.23.63-4.15.51-4.13-2.44,0-4.65-.36-9.41.49-13.92C55.22,2.51,69.38-6.67,82.18,6.17c2.16,4.07,4.38,8.13,4.41,12.91,0,6.43,0,12.86,0,19.29A5.19,5.19,0,0,1,85.31,42c-16,.05-31.95.33-47.92,0-6.48-.12-10.13,2.41-12.6,8.21C18.68,64.54,12.22,78.73,5.9,93c-1.52,3.43-2.23,6.81.4,10.07,2.18,4.18,6,4.72,10.16,4.72q44.33-.06,88.66,0c11.68,0,15.43-5.87,10.69-16.75Q107,70.72,98.1,50.47c-.72-1.64-1.85-3.2-1.23-5.16,3.71-3,4.21.9,5.71,2.65,6.18,14.32,12.22,28.7,18.59,42.93,4.73,10.57-1.94,22.17-14.42,21.85-25.45-.65-50.92-.17-76.39-.21-7,0-13.95-.24-20.93-.37C4.07,109.73,1.16,105.42,0,99.78A24.75,24.75,0,0,1,2.31,89.7C8.55,75.62,14.78,61.53,20.79,47.36,23.84,40.19,29,37,36.69,37.1c13.61.18,27.23,0,40.85.12,3.16,0,4.4-.7,4.17-4.07-.32-4.8-.12-9.63-.2-14.44a12.3,12.3,0,0,0-3.23-8.63c-5.84-7.25-14.2-6.72-18.89,1.14-1.75,2.95-2.13,6.15-2.24,9.49C57,24.46,57.84,28.29,56.4,32Z" style="fill:#272727"/><path d="M9.43,112.16c7,.13,14,.36,20.93.37,25.47,0,50.94-.44,76.39.21,12.48.32,19.15-11.28,14.42-21.85C114.8,76.66,108.76,62.28,102.58,48c3.83.21,5.4,3.14,7.18,5.89s2.19,6.5,4.47,9.16c4.3,12.06,10.16,23.43,15.18,35.18,3.36,7.85,2.73,12.84-2.47,17.7a11.36,11.36,0,0,1-8.18,3q-49.41,0-98.8,0C15.16,118.86,11.23,117.07,9.43,112.16Z" style="fill:#d3d3d3"/><path d="M85.31,42a5.19,5.19,0,0,0,1.28-3.6c0-6.43,0-12.86,0-19.29,0-4.78-2.25-8.84-4.41-12.91,5,.69,9.12,5.94,10.23,12.32,1.29,7.4.88,14.82.86,22.24,0,2.73.48,4.56,3.6,4.58-.62,2,.51,3.52,1.23,5.16Q107,70.74,115.81,91c4.74,10.88,1,16.74-10.69,16.75q-44.33,0-88.66,0c-4.18,0-8-.54-10.16-4.72,2.06,0,2.11-1.8,2.69-3.09,6.44-14.54,13.29-28.91,19.14-43.68,3.45-8.7,9-11.68,17.94-11.35,12.11.43,24.24.14,36.36.06C84.16,45,87.48,45.94,85.31,42Z" style="fill:#d3d3d3"/><path d="M56.4,32c1.44-3.67.62-7.5.75-11.25.11-3.34.49-6.54,2.24-9.49,4.69-7.86,13-8.39,18.89-1.14C67.62,9.88,63.43,14,63.4,24.57c0,1.66-.06,3.33,0,5,.1,2.15-.32,4.14-2.42,5C58.53,35.66,57.45,33.7,56.4,32Z" style="fill:#d3d3d3"/><text transform="translate(18.34 174.13) scale(0.82 1)" style="font-size:41.908382415771484px;fill:#272727">H<tspan x="31.68" y="0" style="letter-spacing:-0.028010997011145723em">A</tspan><tspan x="59.01" y="0">UL</tspan></text></svg>
