<svg id="Lag_2" data-name="Lag 2" xmlns="http://www.w3.org/2000/svg" viewBox="0 0 325.52 400.03">
            <path d="M260.11,78.61c-11.57-8.25-22.28-15.69-32.77-23.44-9.15-6.76-8.92-10.26,1.61-15.28Q268,21.26,307.48,3.45c5-2.26,11-2.36,16.58-3.45.5,5.78,1.83,11.63,1.36,17.33-2.32,28.21-5.09,56.38-7.79,84.55-.26,2.65-.41,5.9-2,7.67s-6,3-6.93,2.08c-2.05-2-3.9-5.5-3.71-8.25,1.15-17,3-33.95,4.41-50.93,1-11.48,1.74-23,2.78-36.93L240.49,48.68c11,7.71,20,14.39,29.34,20.37,6.88,4.37,7.93,7.92,2.61,15q-22.86,30.64-44,62.57c-4.79,7.23-8.84,7.74-15.49,3.37-45.22-29.64-99.92-29-144.92,1.6S3.31,240.74,18.18,293.38c24,85,129.72,123.7,203.78,65.81,44.28-34.6,60.89-93.18,40.93-146.74-3.77-10.14-9.67-19.52-15-29-2.31-4.13-4.52-8.33,1-10.42,2.52-.94,8,.82,9.48,3.09,22.69,34.46,31.89,71.62,22.05,112.64-9.58,39.85-30.92,71.53-66.74,91.44-48.06,26.72-96.62,26.69-144.85-1.44C11.1,345-11.77,277.48,5.77,218,27.53,144.08,98.66,102.89,172.92,119c13.69,3,26.39,10.38,39.74,15.2,2.58.93,7.6.47,8.88-1.27C234.49,115.39,246.89,97.42,260.11,78.61Z"/>
</svg>