<svg xmlns="http://www.w3.org/2000/svg" viewBox="0 0 427.16 444"><g id="Lag_1" data-name="Lag 1"><path d="M339.54,36.12C315.57,12.15,286.23,0,252.35,0s-63.22,12.15-87.19,36.12S129,89.43,129,123.31c0,32.54,11.22,60.88,33.34,84.31a187.55,187.55,0,0,1,20.33-22.2C166.8,167.88,159,147.51,159,123.31c0-26,8.94-47.57,27.34-66s40-27.34,66-27.34,47.58,9,66,27.34,27.34,40,27.34,66-8.95,47.58-27.34,66-40,27.34-66,27.34c-2,0-3.93-.07-5.86-.18q0,.35.06.72c.06,5.22.08,10.1-1.16,15.2-.74,3-1.49,6-2,9.08a5.68,5.68,0,0,1-.09,4.67c0,.06,0,.12,0,.18,3,.2,6,.33,9,.33,33.88,0,63.22-12.15,87.2-36.13s36.12-53.3,36.12-87.19S363.52,60.1,339.54,36.12Z" transform="translate(-42)"/><path d="M468.13,356.09a171.27,171.27,0,0,0-4.15-24,150.49,150.49,0,0,0-8-24.17,107.11,107.11,0,0,0-13.37-22.54,93.46,93.46,0,0,0-20.16-19.52,97.24,97.24,0,0,0-29-13.53,131.22,131.22,0,0,0-37-5c-5.23,0-10.28,1.59-20.05,6.32-6,2.91-13,6.27-20.88,10-6.7,3.17-15.79,6.15-27,8.84a139.51,139.51,0,0,1-66.09,0c-11.21-2.69-20.3-5.66-27-8.84-7.77-3.69-14.8-7.06-20.9-10-9.75-4.72-14.81-6.31-20-6.31a131.22,131.22,0,0,0-37,5,97.47,97.47,0,0,0-29,13.53A93.66,93.66,0,0,0,68.5,285.34a107.4,107.4,0,0,0-13.38,22.55,152,152,0,0,0-7.95,24.16A170.65,170.65,0,0,0,43,356.1c-.68,7.27-1,14.83-1,22.47,0,19.86,8.5,35.94,25.25,47.8C83.8,438.07,105.69,444,132.32,444H378.85c26.62,0,48.51-5.93,65.06-17.63,16.76-11.85,25.25-27.94,25.25-47.8C469.16,370.9,468.81,363.34,468.13,356.09Zm-44.91,50.36c-10.93,7.1-25.45,10.55-44.38,10.55H132.32c-18.94,0-33.45-3.45-44.38-10.55C77.21,399.48,72,390,72,377.39a191.17,191.17,0,0,1,1-19.22,131.19,131.19,0,0,1,3.75-19.88,115.22,115.22,0,0,1,7-19.57,78.61,78.61,0,0,1,10.88-16.83,66.9,66.9,0,0,1,14.82-13.25,67.63,67.63,0,0,1,19.27-8.18,97.87,97.87,0,0,1,23.63-3.11c1,.38,2.92,1.11,5.95,2.46,6.17,2.74,13.28,5.87,21.14,9.3,8.86,3.85,20.27,7.33,33.91,10.34a195.27,195.27,0,0,0,84.54,0c13.65-3,25.06-6.49,33.93-10.35,8-3.51,15-6.55,21.12-9.29,3-1.35,4.9-2.08,5.95-2.46a98,98,0,0,1,23.64,3.11,67.75,67.75,0,0,1,19.27,8.18,66.85,66.85,0,0,1,14.81,13.25,78.53,78.53,0,0,1,10.89,16.83,114.67,114.67,0,0,1,7,19.57,131.76,131.76,0,0,1,3.75,19.89h0a187.31,187.31,0,0,1,1,19.21C439.16,390,434,399.48,423.22,406.45Z" transform="translate(-42)"/><circle cx="129.97" cy="195.93" r="15"/></g><g id="Lag_2" data-name="Lag 2"><circle cx="202.71" cy="231.25" r="14.91"/></g></svg>