<svg id="Layer_1" data-name="Layer 1" xmlns="http://www.w3.org/2000/svg" viewBox="0 0 454.91 454.91"><path d="M353.09,338a201.62,201.62,0,0,0,52.24-135.34C405.33,90.92,314.42,0,202.67,0S0,90.92,0,202.67,90.92,405.33,202.67,405.33a200.08,200.08,0,0,0,88.25-20.43c-3.72-5.85-5.47-12.75-8.88-19.25A180.07,180.07,0,0,1,202.67,384c-100,0-181.34-81.34-181.34-181.33S102.69,21.33,202.67,21.33,384,102.68,384,202.67a180.87,180.87,0,0,1-60.41,135c0,.14.06.29.09.43a4.47,4.47,0,0,1,1.52,1.85,4.58,4.58,0,0,1,1.83,2.16,4.37,4.37,0,0,1,.53.6,4.26,4.26,0,0,1,1.32,1.21,4.62,4.62,0,0,1,1.61,2.08,4.35,4.35,0,0,1,.83.83,4.2,4.2,0,0,1,1,1.09,35.55,35.55,0,0,0,2.92,2.72,14.75,14.75,0,0,1,2.6,2.65l.2-.17,94.22,94.22c3.14-6.47,7.23-12.79,12.61-17.56Z"/><path d="M451.78,436.7l-11.29-11.29a4.15,4.15,0,0,1-.48,1.08,14,14,0,0,1-6.34,5.33,6.11,6.11,0,0,1-.66.27c-2.37,3-3.94,7.27-5.55,10.46l9.24,9.23a10.66,10.66,0,1,0,15.08-15.08Z"/><path d="M290.21,360l-13.44,8.62a4.37,4.37,0,0,1,1,.7,13.94,13.94,0,0,1,3.85,7.33,6.11,6.11,0,0,1,.13.7c2.47,3,6.27,5.4,9,7.65l11-7.05A10.66,10.66,0,1,0,290.21,360Z"/></svg>