<svg id="Lag_1" data-name="Lag 1" xmlns="http://www.w3.org/2000/svg" viewBox="0 0 292.09 406.7">
    <path d="M740.67,1301c0,10.27,0,19.57,0,28.87,0,5.84,1.56,7.37,6.56,7.71,4.68.32,7.28-2.47,7.16-7.71-.17-7.83,0-15.68-.34-23.5-.2-4.27,1.46-5.62,5.49-5.42a106.22,106.22,0,0,0,12.49,0c5.06-.33,7.19-2.89,6.88-7.67s-3.2-6.08-7.43-6c-4.67.09-9.34-.08-14,0-3.42.09-4.71-1.33-4.71-4.76q0-27.49-.3-55c0-3.1,1-4.72,4.25-4.6a80.1,80.1,0,0,0,29.77-4.77c9.84-3.46,19.71-7,29.18-11.31,13.08-6,24.17-15.07,34.32-25.08,10.72-10.56,20.14-22.25,27-35.8,5.13-10.2,10.3-20.36,11.94-31.92,1.24-8.76,3.79-17.4,4.34-26.17,1-16.23,1-32.51-4.55-48.2-3-8.38-5.24-17.05-8.87-25.13-7.73-17.22-19.38-31.67-33-44.67a139.56,139.56,0,0,0-57.17-33.17c-11.57-3.43-24-4.15-36.17-5.32-16.36-1.57-32.61.83-48.19,5.31-10.92,3.14-21.22,8.79-31.41,14.08-14.84,7.72-27,19.11-37.86,31.52a139.17,139.17,0,0,0-25.12,42,127.88,127.88,0,0,0-8.85,39.2c-.75,13.88-.54,27.7,2,41.62a141.89,141.89,0,0,0,13.33,38.9c7.65,15.12,18.06,28.39,30.34,40.22,14.55,14,31.93,23.25,50.28,31,3.59,1.51,7.14.54,8.68-3.32,1.29-3.23,1.2-6.61-2.79-8.44-3.12-1.42-6.29-2.76-9.27-4.44-9.45-5.31-19.42-10-28.06-16.36-13.35-9.88-24.69-22.07-32.68-36.8-4.8-8.85-9.57-17.93-12.56-27.47-3.28-10.43-5-21.44-6.49-32.32-2.16-15.51.7-30.86,4.38-45.78a106.7,106.7,0,0,1,16.94-36.53c12-16.78,26.38-31.42,44.62-41.74,11.72-6.62,23.75-12.43,37.28-14.26,10.31-1.39,20.62-3.14,31-3.66,7.23-.35,14.58,1,21.83,1.83a50.68,50.68,0,0,1,12.1,2.53c8.81,3.39,17.41,7.33,26.09,11.08,16.59,7.18,29.31,19.5,41,32.63,9.4,10.54,16.22,23.1,21.72,36.21,6.28,15,8.51,30.91,9.08,46.82.38,10.55-1.85,21.35-4,31.81-1.83,8.9-4.25,18-8.14,26.12-10.06,21.1-24.51,38.94-44,52.2A165.52,165.52,0,0,1,800.87,1199a104.85,104.85,0,0,1-22.38,7.17c-10,2.07-20.2,4-30.34,4.14-9.24.13-10.43,5.2-9.22,11.58a48.2,48.2,0,0,1,1.13,8.33c.22,16.66.31,33.33.43,50,0,2.11,0,4.23,0,7-7.21,0-13.83,0-20.45,0-4.23,0-7.82,3.11-7.91,6.61s3.42,6.76,7.65,7c2.82.18,5.66.07,8.5.08Z" transform="translate(-601.66 -930.9)"/></svg>